<?xml version="1.0" encoding="utf-8"?>
<!-- Generator: Adobe Illustrator 19.2.1, SVG Export Plug-In . SVG Version: 6.00 Build 0)  -->
<svg version="1.1" id="Camada_1" xmlns="http://www.w3.org/2000/svg" xmlns:xlink="http://www.w3.org/1999/xlink" x="0px" y="0px"
	 viewBox="0 0 250 250" style="enable-background:new 0 0 250 250;" xml:space="preserve">
<style type="text/css">
	.st0{fill:#FFFFFF;}
	.st1{fill:#DADADA;}
	.st2{fill:#C6C6C6;}
	.st3{clip-path:url(#SVGID_2_);}
	.st4{fill:#EDEDED;}
</style>
<g>
	<g>
		<path class="st0" d="M144.5,108.6l-0.1-0.3C144.5,108.4,144.5,108.5,144.5,108.6z"/>
		<path class="st0" d="M146.3,111.1L146.3,111.1C146.3,111.1,146.2,111,146.3,111.1z"/>
		<path class="st0" d="M143.5,120.6c0.2,0.1,0.3,0.1,0.3,0.1c-0.1-0.1-0.4-0.2-0.7-0.3C143.2,120.4,143.3,120.5,143.5,120.6z"/>
		<path class="st0" d="M104.1,112.3c0,0-0.1,0.1-0.1,0.1C104,112.4,104.1,112.4,104.1,112.3z"/>
		<path class="st0" d="M130,131.9C130,131.9,130.1,131.9,130,131.9C130,131.9,130,131.9,130,131.9z"/>
		<path class="st0" d="M122,104.9c0,0,0.1,0,0.1,0c0,0,0.1,0,0.1,0c0,0,0,0,0.1,0c0,0,0,0-0.1,0C122,104.8,121.9,104.9,122,104.9z"
			/>
		<path class="st0" d="M142.1,126.6C142.1,126.6,142.1,126.6,142.1,126.6L142.1,126.6L142.1,126.6z"/>
		<path class="st0" d="M142.1,126.2c0,0-0.1,0-0.1,0c0,0,0,0-0.1,0c0,0,0,0,0,0l0,0c-0.1,0-0.1,0-0.2,0c-0.3,0-0.5,0.1-0.5,0.1
			c0.2,0,0.3,0,0.4,0.1c0.1,0,0.1,0,0.2,0l0.1,0c0,0,0,0,0,0c0.1,0,0.2,0.1,0.3,0.1c0,0,0-0.1,0-0.2
			C142.1,126.3,142.1,126.2,142.1,126.2z"/>
		<path class="st0" d="M145.2,110C145.2,110,145.2,110,145.2,110c-0.1-0.1-0.1-0.1-0.1-0.1C145.1,110,145.2,110,145.2,110z"/>
		<path class="st0" d="M126.6,108.7c0.1,0,0.1,0.1,0.2,0.1C126.7,108.7,126.7,108.7,126.6,108.7z"/>
		<polygon class="st0" points="110.2,109.8 110.1,109.9 110.2,109.9 		"/>
		<path class="st0" d="M143.1,120.5c0.1,0,0.1,0.1,0.1,0.1C143.3,120.6,143.3,120.6,143.1,120.5z"/>
		<path class="st0" d="M132.9,102.3C132.9,102.3,132.9,102.3,132.9,102.3L132.9,102.3L132.9,102.3z"/>
		<path class="st0" d="M133.3,132.4c0,0,0,0.1,0,0.2C133.3,132.6,133.3,132.5,133.3,132.4C133.3,132.5,133.3,132.4,133.3,132.4
			c0,0,0-0.1,0-0.1C133.3,132.3,133.3,132.3,133.3,132.4z"/>
		<path class="st0" d="M121.4,126.7l-0.5,0c0.2,0.1,0.3,0.1,0.4,0.2L121.4,126.7z"/>
		<path class="st0" d="M123.8,127.2c-0.1,0-1-0.2-0.2,0.1C123.7,127.3,125,127.6,123.8,127.2z"/>
		<path class="st0" d="M140.4,127.8c0.7-0.1,1-0.1,0.7-0.3c-1.1,0-0.2,0.2-1.2,0.2C139.6,127.8,140.6,127.7,140.4,127.8z"/>
		<path class="st0" d="M140.4,127.8c-0.1,0-0.2,0-0.3,0.1C140.2,127.8,140.3,127.8,140.4,127.8z"/>
		<path class="st0" d="M149.9,115.9c0-0.1-0.1-0.3-0.3-0.5L149.9,115.9L149.9,115.9z"/>
		<path class="st0" d="M144.3,107.9c0-0.1,0-0.2,0-0.2L144.3,107.9c-0.1,0-0.1,0.2-0.1,0.2S144.2,107.9,144.3,107.9z"/>
		<path class="st0" d="M139.2,105.2c0.1,0,0.3,0,0.4,0C139.5,105.2,139.4,105.2,139.2,105.2c0,0-0.1,0-0.2,0c-0.1,0-0.2,0-0.3,0
			c-0.3,0-0.5,0.1-0.4,0.2C138.7,105.3,139.1,105.2,139.2,105.2z"/>
		<path class="st0" d="M146.4,131.2l-0.3,0.2C146.2,131.3,146.3,131.3,146.4,131.2z"/>
		<path class="st0" d="M148.8,130.1L148.8,130.1C148.7,130.1,148.7,130.2,148.8,130.1z"/>
		<path class="st0" d="M154.5,113.6c-0.1-0.2-0.1-0.4-0.3-0.6L154.5,113.6z"/>
		<path class="st0" d="M135.8,139.2c0.8,0.1,0.5,0,0.5-0.1c0,0-0.1,0-0.3,0C135.9,139.2,135.8,139.2,135.8,139.2z"/>
		<path class="st0" d="M101.3,147c0,0,0-0.1-0.1-0.1C101.3,146.9,101.3,147,101.3,147z"/>
		<path class="st0" d="M120.7,99.7C120.7,99.7,120.7,99.7,120.7,99.7C120.6,99.7,120.7,99.7,120.7,99.7z"/>
		<path class="st0" d="M127,151.3C127,151.3,126.9,151.3,127,151.3C126.7,151.6,126.8,151.5,127,151.3z"/>
		<path class="st0" d="M141.8,99.9C141.8,99.9,141.8,99.9,141.8,99.9C141.8,99.9,141.8,99.9,141.8,99.9L141.8,99.9z"/>
		<path class="st0" d="M142.1,100.4c0,0,0.2-0.1,0.5-0.1c0.2-0.1,0.5-0.1,0.5-0.1c-0.6,0-0.9-0.1-1.3-0.2c0,0,0.1,0.1,0.2,0.2
			C142,100.3,142.1,100.4,142.1,100.4z"/>
		<path class="st0" d="M152.7,126.2L152.7,126.2C152.7,126.2,152.7,126.2,152.7,126.2C152.7,126.2,152.7,126.2,152.7,126.2z"/>
		<path class="st0" d="M152.7,126.2C152.7,126.2,152.7,126.2,152.7,126.2L152.7,126.2L152.7,126.2z"/>
		<path class="st0" d="M156.9,121.1c0-0.2-0.1-0.4-0.1-0.4c0-0.2,0.1-0.1,0.1-0.1c-0.1-0.6-0.2-0.1-0.3-1c-0.1-0.1-0.1-0.6-0.1-1.1
			c0-0.3-0.1-0.6-0.1-0.9c-0.1-0.3-0.2-0.6-0.3-0.8c0-0.3,0.2,0.1,0.2,0c-0.7-1.4-0.6-1.2-1.3-2.2c0,0-0.1-0.2-0.2-0.5
			c-0.1-0.2-0.2-0.5-0.2-0.5c0.3,0.7-0.4,0-1-0.6c0,0,0,0.1,0,0.1c-0.1-0.1-0.1-0.2-0.2-0.2c0,0,0.1,0.1,0.1,0.1c0,0,0-0.1-0.1-0.1
			c-0.1,0-0.1-0.1-0.2-0.1c-0.1-0.2-0.2-0.3-0.4-0.5c0,0,0.2,0,0.4,0.2c0.1,0.2,0.1,0.3,0.2,0.5c0.3,0.2,0.6,0.4,0.6,0.3
			c-0.1-0.1-0.2-0.2-0.3-0.3c0.1,0.1,0.1,0.1,0.1,0c0-0.1-0.1-0.1-0.3-0.3l0-0.4l-0.1,0c0,0-0.2-0.4-0.5-0.8
			c-0.2-0.4-0.5-0.7-0.5-0.7c-1-0.8-2-1.5-3.4-2.8c0.5,0.2,0.3-0.1,0.4-0.2c0.2,0.5,1.2,1,1.8,1.9c-0.3-0.4-0.2-0.4-0.1-0.3
			c0,0-0.4-0.3-0.7-0.6c-0.4-0.3-0.7-0.6-0.7-0.6c0.1,0,0-0.1-0.1-0.3c-0.1-0.1-0.1-0.1-0.2-0.2c0,0-0.1-0.1-0.1-0.1
			c0,0-0.1-0.1-0.1-0.1c0,0.1-0.1,0.1-0.2,0.1c0,0-0.1,0-0.1-0.1c0-0.1,0-0.1-0.1-0.2c-0.1-0.2-0.2-0.5-0.3-0.8
			c-0.1-0.3-0.2-0.5-0.3-0.7c0.1-0.1,0.3,0,0.6,1c-0.1-0.5-0.3-0.8-0.5-1.1c-0.2-0.3-0.5-0.5-0.6-1c-0.1-0.2-0.3-0.4-0.4-0.6
			c-0.2-0.3-0.3-0.5-0.2-0.4l0.1,0.2c-0.4-0.6-1.3-1.5-2.2-2c-0.9-0.5-1.7-0.8-1.9-0.7c0,0,0.3-0.2,0.4-0.2c0,0-0.7-0.1-1.5,0
			c-0.2,0-0.4,0-0.5,0.1c-0.3-0.1-0.5-0.1-0.8-0.1c-0.1-0.3-0.2-0.6,0.7-0.5c-0.4-0.1-0.8-0.2-1.6-0.1c0.3,0,0.6,0.4,0.3,0.4
			c-0.5-0.2-0.6-0.2-0.8-0.2c-0.1,0-0.2,0-0.3,0c0,0-0.1,0-0.1-0.1c-0.1-0.1-0.1-0.1-0.2-0.2c0.1,0.1,0.1,0.1,0,0.1
			c0,0,0,0.1-0.1,0.1c-0.2,0-0.4,0-0.7-0.2c0.1,0,0.1-0.3,0.3-0.3l-1.4-0.4c0.3,0.1,0.2-0.2,0-0.5c0.1,0.1-1.1-0.6-1.5-0.7l0.5,0.3
			c-1.4-0.7-1.6-0.2-3.1-0.9c0.2,0,0.6-0.2-0.1-0.6c-0.2,0-0.7,0.1-1.3,0c0,0-0.1,0-0.1,0l-0.1,0c-0.2-0.1-0.6-0.2-1.2-0.2
			c-0.1,0-0.3,0-0.5,0c0.1,0,0.2-0.1,0.3-0.1c0.4-0.1,0.7-0.1,1.1-0.2c0.2,0,0.4,0,0.5,0c0.2,0,0.3,0,0.4,0.1
			c-0.3-0.2-0.3-0.2-0.4-0.3c-0.1,0-0.2-0.1-0.7-0.2c-0.2-0.1,0-0.1,0.2-0.1c0.2,0,0.6,0.1,0.7,0.2c0,0-0.1-0.1-0.4-0.1
			c-0.2-0.1-0.5-0.1-0.8-0.2c-0.6-0.1-1.2-0.1-1.2-0.1c0.1,0.1-0.4,0.2-0.9,0.4c-0.5,0.2-0.9,0.5-0.8,0.5c0,0,0,0,0.1-0.1
			c0.1,0,0.2-0.1,0.3-0.2c0.2-0.1,0.5-0.2,0.9-0.3c0.7-0.2,1.3-0.1,1.3-0.1c0,0.1-0.3,0.2-0.9,0.4c-0.6,0.2-1.3,0.4-1.9,0.9
			c-0.4,0.2,0-0.5-0.1-0.5c-0.1,0.1-0.4,0.4-0.6,0.7c-0.2,0.3-0.4,0.7-0.4,0.8c0,0,0-0.2,0.1-0.4c0.1-0.2,0.2-0.4,0.2-0.4
			c-0.3,0.4-0.4,0.9-0.4,1.3c0,0.2,0,0.5,0,0.6c0,0,0,0.1,0,0.1c0,0,0,0,0,0l-0.1-0.1c-0.2-0.2-0.3-0.3-0.2-0.2
			c0.2,0.2,0.5,0.6,0.7,1c0.1,0.1,0.1,0.1,0.1,0.2c-0.3-0.2-0.7-0.4-1.1-0.5c0,0,0-0.1,0-0.1l-0.2,0l0,0.1c-0.2,0-0.3,0-0.5-0.1
			c0,0,0,0,0,0c0,0,0,0,0,0c-0.1,0-0.4,0-0.6,0.1c-0.1-0.1,0.1-0.2,0.2-0.3c0.2-0.1,0.5-0.2,0.2-0.3c0,0.1-0.4,0.2-0.5,0.2
			c-0.4,0,0.1-0.2-0.7,0c-0.1,0.2-1.6,0.8-0.3,0.3c-0.3,0.2-0.5,0.3-0.6,0.4c-0.1,0.1-0.2,0.1-0.4,0.2h0c-0.1,0-0.1,0-0.2,0h0l0,0
			c0,0,0,0,0,0.1l0,0l0,0l0,0c0,0-0.1,0.2-0.2,0.1c-0.1,0-0.3-0.1-0.5-0.2c-0.2-0.2-0.5-0.4-0.8-0.6c0,0,0,0,0,0
			c-0.7-0.4-1.3-0.5-1.9-0.4c-0.6,0-1.2,0.1-1.8,0.5c-0.2,0-0.8,0.5-0.6,0.2c-0.1,0.1-0.1,0.2-0.2,0.3c-0.1,0.1-0.1,0.2-0.2,0.4
			c-0.2,0.2-0.1,0,0-0.2c0.1-0.2,0.2-0.3,0-0.3c0,0.1-0.1,0.2-0.2,0.5c-0.1,0.1-0.3,0.1-0.4,0c-0.1-0.1-0.2-0.1-0.4-0.2
			c0,0.1,0.1,0.1,0.2,0.2c0.1,0,0.1,0.1,0.2,0.1c0,0,0.1,0.1,0.1,0.1c0,0,0.1,0,0.1,0c0,0,0.1,0,0.1,0c0,0,0.1-0.1,0.1-0.1
			c0-0.1,0.1-0.2,0.1-0.3c0.1-0.2,0.1-0.3,0.3-0.4c0.1,0.1,0,0.2,0,0.4c-0.1,0.2-0.2,0.3-0.3,0.6c0,0,0,0.1-0.1,0.1l-0.1,0
			c0,0,0,0-0.1,0c0,0-0.1,0-0.1,0c-0.4-0.4-1.1-0.7-1.9-0.8c-0.5,0-1,0.1-1.5,0.3l-0.1,0.1c-0.1,0-0.2,0.1-0.3,0.2
			c-0.2,0.1-0.3,0.2-0.5,0.3c-0.3,0.2-0.5,0.5-0.7,0.8c-0.2,0.3-0.4,0.7-0.5,1c-0.3,0.1-0.6,0.1-0.9,0.1c-0.3-0.1-0.7-0.2-1-0.2
			c-0.2,0-0.5,0.1-0.6,0.1c-0.3,0-0.7,0.1-1,0.3l0,0c-0.2,0.1-0.8,0.6-1.2,1.5c-0.1,0.1-0.1,0.3-0.1,0.3s0-0.1,0.1-0.1c0,0,0,0,0,0
			c-0.1,0.3-0.2,0.6-0.2,0.9l0,0.3l0,0c0,0.1-0.1,0.1-0.1,0.1l-0.2,0.1c-0.1,0.1-0.3,0.1-0.4,0.1l-0.1,0l0,0l0,0l-0.2,0
			c-0.1,0-0.3,0-0.5,0c0,0,0,0,0-0.1c0,0-0.4,0.1-0.7,0.2c0,0-0.1,0-0.1,0c0,0,0.2-0.2,0-0.1c0,0-0.1,0.1-0.3,0.2
			c-0.3,0.1-0.7,0.3-1,0.5c-0.1,0-0.1,0.1-0.2,0.1c0,0,0,0,0,0c0,0,0,0,0,0c-0.6,0.5-1.1,1.4-1.1,2.7c-0.2,0.1-0.6,0.2-1,0.4
			c-0.4,0.1-1.3,0.4-2,1.3c-0.6,0.7-0.9,2-0.1,3.3l0,0c-0.1,0.1-0.1,0.1-0.2,0.1c-0.7,0.4-1.8,1.4-1.8,3c0,0.4,0,1.2,0.6,2l-0.6,0.5
			c-0.8,0.7-1.5,2.4-0.3,4.2l0,0c0.1,0.1,0.1,0.2,0.2,0.3c-0.4,0.4-1.2,1.5-1.3,2.7c0,0.9,0.3,1.7,0.9,2.3l0.1,0.1l0.1,0.1
			c0.1,0,0.1,0.1,0.2,0.2c-0.3,0.4-0.6,1-0.8,1.7c-0.2,0.3-0.3,0.6-0.4,0.6c0.1,0.5,0.1,1.1,0.5,1.8c0.2,0.3,0.4,0.7,0.8,0.9
			c0.1,0.1,0.2,0.1,0.3,0.2l0.1,0.1c0,0,0,0,0.1,0c0,0,0.1,0,0.1,0.1c-0.1,0.3-0.2,0.7-0.3,1.3l0-0.1c-0.1,1.3,0.4,2.3,1.1,3
			c0.4,0.4,0.8,0.7,1.3,0.9c0.1,0,0.2,0.1,0.3,0.1c0.1,0,0.1,0.1,0.2,0.1c0,0.1,0,0.1,0.1,0.2c0.1,0.1,0.1,0.3,0.2,0.4l0-0.2
			c0.2,0.5,0.2,0.6,0.3,0.9c0.3,0.2,0.1-0.1-0.1-0.5c-0.2-0.4-0.3-0.7-0.1-0.5c0,0.4,0.5,1.3,1,2.1c0.5,0.8,1.1,1.6,1.1,1.9
			c0.6,0.7,0-0.3,0.5,0.4l0.1,0.2l0.2,0.1c0.3,0.5,0.5,0.7,0.4,0.8c-0.1-0.1-0.3-0.3-0.4-0.4c0.2,0.3,0.6,0.7,0.9,1
			c0.3,0.3,0.7,0.6,0.8,0.7l-0.6-0.6c0.9,0.8,1.9,1.7,3.1,2.4c1.1,0.7,2.3,1.3,3.4,1.7l-0.1-0.1c0.4,0.2,0.7,0.2,0.9,0.3
			c0.2,0.1,0.4,0.2,0.6,0.2c0.2,0.1,0.3,0.2,0.6,0.3c0.3,0.1,0.6,0.2,1.1,0.3l-0.1,0c0.4,0,0.9,0.1,1.4,0.2c-0.5,0,0.9,0.3,0.2,0.3
			c1.9,0.2,1,0.1,2.2-0.1l0.3,0.1c0.2,0,0.3-0.1,0.5-0.1c0.2,0,0.4,0,0.9,0c-0.8,0.1,0.6,0.2-0.3,0.3c1,0.2,1.8,0.1,2.4,0.1
			c0.6-0.1,1.1-0.1,1.6,0c0.5-0.2,0-0.2-0.5-0.2c-0.5,0-1,0-0.8,0c-0.2,0,0-0.1,0.3-0.2c0.2,0,0.4,0,0.5-0.1c0.2,0,0.4-0.1,0.6-0.1
			c0.3,0,0.6,0,1,0c0.4,0,1,0,1.7-0.4c-0.2,0.1-0.2,0.1-0.3,0.1c0.3-0.1,0.6-0.2,0.9-0.4c0.3-0.2,0.6-0.3,1-0.5
			c0.3-0.4,0.9-0.5,0.8-0.8c0,0-0.1,0.1-0.2,0.1c-0.1,0.1-0.3,0.2-0.4,0.3c-0.3,0.2-0.6,0.4-0.6,0.4c0.7-0.5,1.3-1.1,2.4-1.9
			c0,0.1-0.3,0.4-0.5,0.6c0.4-0.2,0.6-0.5,0.9-0.8c0.1,0.1-0.3,0.5-0.7,0.8c-0.4,0.3-1,0.7-1.4,1c0.5-0.1,1.4-1.1,1.1-0.6
			c0.2-0.3,0.5-0.6,0.9-0.9c0.2-0.1,0.4-0.3,0.5-0.5c0.2-0.2,0.4-0.4,0.5-0.7l0.1,0.2c0.1-0.2,0.3-0.5,0.5-0.7c0,0-0.1,0.1-0.1,0.3
			c-0.1,0.1-0.1,0.3-0.1,0.3c0.5-0.8,1.2-1.4,1.5-2.2c-0.4,0.8-0.5,0.9-0.6,0.8c0-0.1,0-0.2-0.3,0.1c0.5-1,0.7-1.3,0.9-1.6
			c0.2-0.3,0.6-0.6,0.9-1.9c-0.1,0.3-0.5,1.2-0.4,0.7c0.2-0.5,0.4-1,0.5-1.4c0.3-1.7-0.2,0.2-0.2-0.5c0.1-0.3,0.2-0.5,0.1-0.7
			c0-0.2-0.1-0.5-0.1-0.8l0.2,0c0-1-0.1-1.1-0.2-1.2c-0.1-0.1-0.2-0.2-0.2-1c0,0,0.1,0.2,0.2,0.3c0.1,0.2,0.1,0.3,0.1,0.3
			s0-0.2-0.1-0.4c0-0.2-0.1-0.4-0.1-0.4l0.2,0.2c-0.1-0.5-0.2-0.8-0.3-1.1c0-0.2-0.1-0.3-0.1-0.5c0-0.1,0-0.1,0-0.2
			c-0.1,0.1-0.3-0.1-0.5-0.6c0-0.2,0.3,0.3,0-0.3c0.2,0.3,0.4,0.5,0.3,0.6c0.1,0.1,0.1,0.2,0.2,0.2c0.1-0.1,0-0.3-0.1-0.4
			c0,0,0,0,0,0c0,0-0.1-0.1-0.1,0c0,0,0,0,0,0l-0.1-0.1c0,0,0,0,0,0l0,0c0,0,0,0,0.1,0c0.1,0,0.1,0,0.2,0c0.2,0.1,0.1,0.1,0,0.2
			c0.1,0,0.2,0,0.4,0.1c-0.1,0.1-0.1,0.2-0.2,0.3c0,0,0.1,0,0.2,0c0,0,0.5,0.1,0.5,0.1c0.1,0.1,0.7,0.4,0.5,0.4
			c0.4,0.2,1,0.3,1.5,0.4c0.3,0.1,0.6,0.1,0.9,0.2c0.3,0.1,0.7,0.2,1,0.2c0.1,0,0.2,0,0.5,0c0.7,0,1.4-0.1,2-0.6
			c0.3-0.2,0.6-0.5,0.8-0.9c0.1-0.2,0.2-0.4,0.2-0.6c0-0.1,0-0.2,0-0.3l0-0.1c0,0,0,0,0.1-0.1c0,0,0.1,0,0.1,0c0,0,0,0,0,0l0.1-0.1
			l0.2-0.1c0.4-0.6,0.1-0.3,0-0.2c-0.1,0.1-0.2,0.1-0.2,0c0-0.1,0.2-0.3,0.4-0.8c0.2-0.7,0.2-0.9,0.3-0.9c0.1,0,0.1,0.1,0.2-0.1
			c0,0,0-0.1-0.1-0.1l0-0.1c0,0,0,0,0.1-0.1c0.1-0.2,0.2-0.4,0.3-0.6c0-0.1,0.1-0.2,0.1-0.3c0-0.1,0.1-0.3,0.1-0.3
			c0-0.1,0-0.1,0.1-0.2c0,0,0,0,0,0l0.1,0l0,0c0,0,0,0,0,0c0,0.1,0,0.1,0,0.1l0,0.1c0,0,0,0.1,0,0.1c0-0.1,0-0.1,0.1-0.1l0,0
			l0.1-0.1l0,0l0,0c0,0.1,0.1,0.1,0.1,0.2c0,0,0,0.1,0,0.1c0,0.1,0,0.1,0,0.2c0,0.1-0.1,0.2-0.1,0.3c-0.1,0.2,0,0.3,0.2-0.2
			c0,0,0-0.1,0-0.2c0,0,0-0.1,0-0.1c0,0,0,0,0,0l0,0c0,0,0-0.1,0-0.1c0.1-0.1,0,0,0.7-0.1c0.5-0.1,0.9-0.3,0.9-0.4c0,0,0.2,0,0.3,0
			c0.2,0,0.3-0.1,0.3-0.1c-0.2,0.1-0.2,0.1-0.4,0.2c0.3,0,0.5-0.1,0.7-0.2c0,0,0,0,0,0c0,0,0,0,0,0l0.1-0.1c0.1,0,0.1-0.1,0.1-0.1
			c0.2-0.2,0.4-0.4,1.1-0.6c0.5-0.2,0.8-0.2,0.5-0.1c0,0,0.2-0.1,0.5-0.3c0.2-0.1,0.5-0.3,0.5-0.3c0.3-0.1,0.3,0,0,0.1
			c0,0,0.4-0.2,0.8-0.4c0.4-0.2,0.8-0.4,0.8-0.4l0,0c0.2-0.2,0.6-0.6,0.8-0.8c0.4-0.2-0.2,0.2,0,0.1c0,0,0.2-0.2,0.4-0.3
			c0.2-0.2,0.3-0.4,0.3-0.4c0.4-0.2-0.2,0.5-0.7,0.9c0.5-0.1,0.7-0.3,0.9-0.5c0.1-0.1,0.1-0.2,0.2-0.3c0,0,0.1-0.1,0.1-0.1
			c0,0,0-0.1,0-0.1c0.1-0.1,0.2-0.2,0.4-0.3c0.2-0.1,0.4-0.3,0.6-0.5c0,0-0.2,0.2-0.3,0.4c-0.2,0.2-0.4,0.4-0.4,0.4
			c0.3-0.1,0.7-0.4,1-0.8c0.2-0.2,0.3-0.4,0.4-0.7c0.1-0.1,0.1-0.3,0.2-0.5c0-0.1,0-0.2,0.1-0.2l0-0.1l0,0c0,0-0.1,0.2-0.2,0.4
			c0,0.1-0.1,0.3-0.2,0.4l-0.1,0.2c0,0.1-0.1,0.1-0.1,0.2c-0.3,0.4-0.5,0.5-0.2-0.1c0-0.1,0.1-0.2,0.1-0.3c0-0.1,0.1-0.2,0.1-0.3
			c0-0.1,0.1-0.3,0.1-0.4l0-0.1c0,0,0,0,0,0c0,0,0-0.1,0-0.1c0.1,0,0.1,0,0.1-0.1c0,0,0.1,0,0.1-0.1c0,0,0.1,0,0.1,0l0.1,0.2
			c0,0,0,0,0.1-0.1c0.1-0.1,0.2-0.1,0.2-0.1c0.1-0.1,0.2-0.2,0.4-0.3c0.8-0.3,1-0.3,1.3-0.3c1.2-0.7-0.9,0.3,0.4-0.6
			c0.2-0.2,0.5-0.3,0.7-0.5c0.1-0.1,0.2-0.2,0.3-0.3c0.1-0.1,0.2-0.2,0.2-0.4c0.3-0.5,0.4-1.1,0.5-1.8c0.2-0.8,0.1,0.2,0.2-0.1
			C156.9,121.4,156.9,121.3,156.9,121.1z M95.6,135.9l0,0.1C95.6,136,95.6,136,95.6,135.9z M99.5,135.3c-0.3-1.2-1.2-2-1.8-2.4
			c0-0.1,0.1-0.1,0.1-0.2l0.1-0.1c1.2-1.5,0.5-3.3-0.7-4.4c0.1-0.1,0.2-0.2,0.2-0.3c0.4-0.3,0.7-0.8,0.9-1.3
			c0.2-0.3,0.4-0.7,0.5-0.6c-0.1-0.4-0.1-0.9-0.2-1.4c0-0.2-0.1-0.6-0.2-0.8c0-0.2-0.1-0.3-0.2-0.4c0,0,0,0,0,0l0,0l0.1-0.1
			c0,0,0.1-0.1,0.1-0.1c0,0,0.1-0.1,0.1-0.1c0,0,0-0.1,0.1-0.1l0.1-0.1c0.3-0.2-0.2,0.3,0,0.2c0.1-0.2,0.3-0.4,0.5-0.7
			c0.2-0.3,0.4-0.6,0.5-1.1l0,0.1c0.2-0.7,0.1-1.4-0.1-1.9c0-0.1-0.1-0.3-0.2-0.4c0-0.1-0.1-0.1-0.1-0.2c-0.1-0.1-0.1-0.2-0.2-0.3
			c0.1-0.1,0.3-0.2,0.5-0.3c0,0,0.1-0.1,0.2-0.2c0.1-0.1,0.2-0.1,0.2-0.2c0.1-0.1,0.2-0.1,0.2-0.2c0.1-0.1,0.2-0.2,0.3-0.3
			c0.1-0.1,0.1-0.2,0.2-0.3c0-0.1,0.1-0.2,0.1-0.3c0.1-0.2,0.2-0.4,0.2-0.6l-0.2,0.2c0.2-0.7,0.2-0.8,0.3-1.2
			c-0.1-0.4-0.1,0.1-0.2,0.6c-0.1,0.5-0.3,1-0.3,0.6c0.1-0.2,0.3-0.6,0.3-1.1c0-0.2,0-0.6,0-0.7c0-0.1-0.1-0.3-0.1-0.4c0,0,0,0,0,0
			l0.1,0l0.1,0c0.1,0,0.1,0,0.2-0.1c0.2-0.1,0.3-0.1,0.5-0.2c0.4-0.1,0.8-0.3,1-0.3c0.5-0.4,0.3-0.4,0.3-0.3c-0.1,0-0.2,0.1,0.2-0.3
			l0.3-0.2l0-0.3c0.4-0.6,0.5-0.9,0.6-0.9c0,0.2-0.1,0.5-0.2,0.7c0.2-0.3,0.3-0.6,0.3-1c0-0.1,0-0.2,0-0.4c0.2,0,0.3,0,0.5,0
			c0.5-0.1,0.9-0.2,1.4-0.4c0.2-0.1,0.4-0.2,0.6-0.4c0.2-0.1,0.4-0.3,0.6-0.4l0.1-0.1l0,0l0.1-0.1c0.1-0.1,0.1-0.1,0.2-0.2l0-0.1
			c0,0,0,0,0,0l0.1,0.1l0.2,0.2c0.2,0.2,0.4,0.5,0.6,0.7l0.4,0.5l0.4-0.4c0.1-0.1,0.2-0.2,0.3-0.2l0.1-0.1l-0.1,0l-0.1,0
			c0,0,0,0,0.1,0l0.3-0.2l0,0.1l0.2-0.2l-0.4-0.4l-0.1-0.1l0,0.1l0,0.1l0-0.1c-0.6-0.6-0.8-0.9-1-1.3c-0.1-0.1-0.2-0.2-0.3-0.4
			c0,0,0-0.1-0.1-0.1c0,0,0-0.1,0-0.1c0,0,0,0,0,0c0.4,0,0.8-0.1,1.3-0.1c-0.5,0.2,1,0,0.3,0.2c0.5-0.1,0.9-0.2,1.1-0.3
			c0.2-0.1,0.3-0.2,0.4-0.2c0.1-0.1,0.2-0.2,0.7-0.8c0,0,0.1,0,0.2-0.1c0.1,0,0.2-0.1,0.2-0.1c0.1-0.2,0.2-0.4,0.3-0.5
			c0.1-0.1,0.1-0.2,0.1-0.3c0-0.1,0.1-0.3,0.2-0.5c-0.1,0.4,0,0.3,0.1,0.2c0.1-0.1,0.1,0,0.1,0.3c0.1-0.4,0.4,0,0.5,0
			c0,0,0.3,0.1,0.5,0.1c0.2,0,0.4,0.1,0.6,0.1c0.4,0,0.7,0,1,0c0.3,0,0.6,0,0.9,0c0.5-0.4,0-0.2-0.6-0.1c-0.5,0.1-1.2,0.1-0.9,0
			c-0.2-0.1,0-0.1,0.3-0.2c0.4-0.1,0.8-0.2,1.2-0.3c0.3-0.1,0.6-0.2,1-0.3c0.3-0.1,0.6-0.3,0.9-0.6c0.3,0.3,0.7,0.6,1.1,0.8
			c0.5,0.1,1.2,0.4,1.3,0.1c0,0-0.4,0-0.9-0.2c-0.4-0.1-0.8-0.4-0.8-0.4c0.5,0.3,1,0.3,1.5,0.4c0.3,0,0.6,0,0.9,0c0.3,0,0.6,0,1,0
			c-0.1,0.1-0.6,0.2-0.9,0.2c0.5,0.1,0.9-0.1,1.4-0.1c0,0.1-0.6,0.3-1.2,0.3c-0.2,0-0.6,0-1,0c-0.4,0-0.7-0.1-1-0.1
			c0.2,0.2,0.8,0.2,1.2,0.2c0.4,0,0.6,0,0.4,0.1c0.1,0,0.1,0,0.2-0.1l0,0c0,0,0,0,0,0c0,0,0,0,0,0c0.1,0,0.2,0,0.3,0
			c0.2,0,0.5,0,0.8-0.1c0.3,0,0.6-0.1,0.8-0.3c0.1-0.1,0.2-0.1,0.3-0.3l-0.1,0.2c0,0,0.1-0.1,0.1-0.2c0.1,0,0.1,0.1,0.1,0.1
			c0,0-0.1,0-0.1,0c0,0-0.1,0.1-0.1,0.1c0,0,0-0.1,0.1-0.1c0,0,0,0,0,0c0,0,0,0.1,0.1,0.1c0,0.1,0.1,0.2,0.1,0.3
			c0,0,0.1,0.3,0.2,0.5c0.1,0.2,0.2,0.4,0.3,0.6c-0.4-0.8-0.4-1-0.3-1c0,0,0.1,0,0.1,0c0,0,0,0,0-0.1c0,0,0-0.1,0-0.2
			c0,0,0,0.1,0.1,0.1c0,0.1,0.1,0.1,0.1,0.2c0.1,0.1,0.1,0.2,0.1,0.3c0.1,0.2,0.1,0.3,0.2,0.4c0.1,0.3,0.1,0.4,0.1,0.6
			c0,0.2,0,0.3,0.1,0.6c0,0.1,0.1,0.3,0.1,0.4c0,0.1,0.1,0.2,0.1,0.3c0.1,0.2,0.1,0.4,0.2,0.6c0.1,0.1,0.3,0.2,0.4,0.3
			c-0.1-0.1-0.3-0.2-0.4-0.3c-0.1-0.3-0.2-0.6-0.2-0.7c0-0.1,0-0.1,0.1,0.1c0.1,0.2,0.1,0.3,0.2,0.5c0.1,0.1,0.3,0.2,0.4,0.3
			c0.1,0.1,0.1,0.1,0.2,0.1l0.1,0.1c0.2,0.1,0.3,0.3,0.4,0.4c1.7,0.8-0.2-0.3,0.6,0c0.5,0.4,0.9,0.3,1.7,0.4l0,0.2
			c0.6,0.1,0.9,0.1,1.1,0c0.2,0,0.3-0.1,0.3-0.2c0.1-0.1,0.1-0.1,0.3-0.2c0.2-0.1,0.4-0.2,0.9-0.5c0,0,0,0-0.1,0.1
			c-0.1,0.1-0.1,0.1-0.2,0.2c-0.1,0.1-0.2,0.2-0.3,0.2c-0.1,0.1-0.1,0.1-0.1,0.1s0.1,0,0.2-0.1c0.1,0,0.2-0.1,0.4-0.2
			c0.1-0.1,0.2-0.2,0.3-0.2c0.1-0.1,0.1-0.1,0.1-0.1s0,0.1,0,0.1c0,0.1,0,0.1,0,0.1c0.5-0.5,0.7-0.8,0.9-1.2
			c0.2-0.4,0.3-0.8,0.4-1.4c-0.1,0.3-0.2-0.2-0.3-1.1c0-0.6,0.2,0.3-0.1-1c0.2,0.3,0.4,0.6,0.3,1.2c0.1,0.1,0.1,0.3,0.2,0.4
			c0.1-0.8-0.3-1.8-0.5-2.2c0.1,0.2,0.1,0.4,0.1,0.5c-0.1-0.2-0.2-0.5-0.4-0.7l-0.2-0.3l-0.2-0.4c-0.1-0.1-0.2-0.2-0.2-0.3
			c-0.1-0.3,0.1-0.1,0.2,0c-0.2-0.3-0.4-0.4-0.6-0.9c0.1,0,0.2,0,0.5,0.3l0,0c0,0,0,0,0.1,0c0.1,0.1,0.1,0.1,0.2,0.2
			c0,0-0.1-0.1-0.2-0.2c0.5,0.2,0.3,0.1,0.4,0l-0.4,0c-0.1-0.1-0.1-0.2-0.2-0.3c0.2,0.1,0.4,0.2,0.6,0.3c0.1,0,0.2,0,0.4,0.1
			c1,0.5,1.9,1.1,3.2,1.6l0.6,0.6c0.5,0.2,0.3,0.1,0.2-0.1c-0.1-0.1-0.1-0.1,0-0.1c0,0,0.1,0,0.2,0.1c0.1,0,0.1,0.1,0.2,0.1
			c0.1,0.1,0.2,0.1,0.4,0.2c0.1,0.1,0.2,0.1,0.3,0.1c0.4-0.1,0.6-0.1,0.7-0.1c0.1,0,0.1,0,0.1,0.1c0,0.1,0,0.1,0.2,0.1
			c0.1,0,0.3-0.1,0.5-0.1c0.1,0,0.2-0.1,0.3-0.1c0.1,0,0.2,0,0.3,0c0.4,0,0.9,0.1,1.4,0.3c-0.3-0.1-0.6-0.2-0.9-0.2
			c0,0,0.2,0.1,0.4,0.1c0.2,0.1,0.3,0.2,0.3,0.2c-0.5-0.1-0.8-0.1-1-0.1c-0.2,0-0.2,0,0.1,0.2c0.1-0.2,0.8-0.1,1.4,0.2
			c0.6,0.3,1.1,0.8,1.3,0.7c0,0,0.1,0.1,0.1,0.2c0.1,0.1,0.1,0.2,0.1,0.2c-0.1-0.1-0.1-0.1-0.2-0.2c0.2,0.4,0.4,0.5,0.6,0.7
			c0.2,0.1,0.4,0.3,0.6,1c0.1,0.4,0,0.8-0.1,0.5c0,0,0,0.1,0,0.2l0,0.2l0.1,0.6l0.5,0.4c0.2,0.1,0.2,0.2,0.1,0.2c0,0,0,0-0.1,0
			c0,0,0,0-0.1,0c0.1,0.1,0.3,0.3,0.5,0.5c0.3,0.3,0.6,0.6,0.6,0.6l0,0c0.2,0.1,0.7,0.4,0.9,0.6c0.3,0.4-0.2-0.1-0.1,0
			c0,0,0.2,0.2,0.4,0.3c0.2,0.2,0.4,0.3,0.4,0.3c0.2,0.4-0.4-0.2-0.9-0.6c0.2,0.5,0.3,0.6,0.6,0.8c0.3,0.2,0.6,0.5,1.1,1.3
			c0,0-0.2-0.2-0.3-0.3c-0.2-0.2-0.3-0.3-0.3-0.3c0.2,0.6,0.7,1.1,1.2,2c-0.1-0.2-0.9-1.8-0.2-1.1c0.2,0.2,0.4,0.6,0.8,1
			c-0.1,0.1,0.2,0.5,0.6,1.1l-0.2,0.1c0.2,0.3,0.3,0.4,0.4,0.5c0,0,0.1,0.1,0.1,0.1c0.1,0.1,0.1,0.1,0.2,0.2c0.3,0.7,0.2,1,0.2,1.2
			c0.4,1.2-0.1-0.9,0.5,0.5c0.1,0.5,0.2,0.9,0.3,1.4c0,0.1,0,0.2,0.1,0.3c0,0,0,0.1,0,0.2c0,0.1,0,0.2,0,0.2c-0.1,0-0.1,0.1-0.2,0.2
			c-0.5,0.1,0-0.1-0.1-0.1c0,0-0.5,0.4-0.5,0.4c-0.1,0-0.1,0-0.1,0c-0.5,0.2,0,0.2-0.8,0.4c-0.1,0.1-0.6,0.1-1.1,0
			c-0.6-0.1-1.2-0.2-1.8-0.1c-0.3-0.1,0.1-0.1,0.1-0.2c-1.5,0-1.3,0-2.6-0.1c0,0-0.3-0.1-0.5-0.2c-0.3-0.1-0.5-0.2-0.5-0.2
			c0.7,0.3-0.3,0.3-1.2,0.2c0,0,0.1,0,0.1,0.1c-0.1,0-0.2-0.1-0.3-0.1c0.1,0,0.1,0,0.2,0c0,0-0.1-0.1-0.1-0.1c-0.1,0-0.1,0-0.2,0
			c-0.2-0.1-0.5-0.1-0.7-0.2c0-0.1,0.2-0.1,0.4-0.1c0.2,0.1,0.3,0.2,0.5,0.3c0.4,0,0.7-0.1,0.7-0.2c-0.1,0-0.3,0-0.5-0.1
			c0.1,0,0.2,0,0.1-0.1c0,0-0.2,0-0.4-0.1l-0.2-0.3l-0.1,0.1c0,0-0.4-0.2-0.8-0.4c-0.4-0.2-0.8-0.4-0.8-0.4c-0.3-0.1-0.6-0.1-1-0.2
			c-0.2,0-0.3-0.1-0.5-0.1l-0.3-0.1c-0.1,0-0.2-0.1-0.3-0.1c-0.9-0.2-1.6-0.4-2.5-0.8c0.1,0,0-0.1-0.1-0.3c-0.1-0.1-0.4-0.3-0.5-0.5
			c0.5,0.3,1,0.5,1.5,0.7c0.6,0.2,1.3,0.4,2,0.8c-0.7-0.3-0.6-0.4-0.4-0.3l-2.6-0.9c-0.1-0.2-0.7-0.4-1.6-0.9
			c0.3,0.2,0.3,0.3,0.2,0.3c0.5,0.7,1.1,2,1.5,2.8c-0.1,0-0.4-0.3-1-1.6c0.1,0.6,0.6,1.2,0.9,1.6c0.3,0.5,0.6,0.9,0.8,1.4
			c-0.1-0.1-0.1-0.2-0.1-0.3c0-0.1-0.1-0.2-0.1-0.2c0.2,0.4,0.4,0.7,0.6,1.1c0.1,0.3,0.2,0.6,0.1,0.5l-0.1-0.2
			c0.2,0.3,0.4,0.9,0.7,1.3c0.3,0.5,0.8,0.9,1.2,1.3c0.9,0.7,1.7,1,1.9,0.9c0,0-0.3,0.2-0.5,0.2c0,0,0.8,0.2,1.5,0.2
			c0.2,0,0.4,0,0.5,0c0.3,0.1,0.6,0.2,0.9,0.2c-0.1,0.1-0.1,0.1-0.2,0.1c-0.2,0.1-0.6,0.2-0.9,0.2c0.2,0.1,0.2,0.1,0.8,0.2
			c0,0,0.1-0.1,0.2-0.1c0.1-0.1,0.2-0.1,0.4-0.1c0.1,0.1,0.1,0.1,0.1,0.2c0,0,0.1,0,0.1,0.1c0,0,0,0-0.1,0.1c0,0,0.3,0,0.7-0.1
			c0.1,0,0.2,0,0.3,0c0.1,0,0.1,0,0.1,0c0,0,0,0.1-0.1,0.1c-0.1,0-1.2,0-1.2,0c0,0,0.1,0.1,0.1,0.2c0,0.1-0.1,0.2-0.1,0.2
			c0.1-0.1-0.7-0.1-1-0.1c0.1,0,0,0.1-0.2,0.1c-0.2,0.1-0.4,0.1-0.5,0.2c0,0,0.4,0,0.4,0c-0.2,0.1-0.4,0.1-0.5,0.2
			c-0.1,0.1-0.4,0.2-0.6,0.2c-0.4,0.2-0.8,0.3-1.7,0.3c0.2-0.1,0.5-0.5-0.4-0.5c-0.2,0.1-0.7,0.4-1.3,0.6c-0.6,0-1.2,0-1.9-0.1
			c0.8-0.2,1.8-0.4,2.4-0.6c-0.6-0.1-0.2-0.1-1.1-0.1c-0.3-0.1,0.5-0.1,0.8-0.1c0,0-0.5,0-1.1-0.1c-0.6,0-1.1-0.1-1.1-0.1
			c0,0.1-0.4,0.1-0.8,0.2c-0.2,0-0.4,0-0.6,0c-0.2,0-0.4,0-0.3,0.1c0,0,0.1,0,0.1,0c0,0,0.1,0,0.2,0c0,0,0.1,0,0.2,0
			c0.2,0,0.5,0,0.8,0c0.6,0,1.2-0.1,1.2-0.1c0,0.1-0.3,0.2-0.9,0.3c-0.6,0.1-1.3,0.1-2.2,0.1c-0.2-0.1-0.2-0.2-0.1-0.2
			c0.1-0.1,0.3-0.2,0.3-0.2c-0.1,0-0.6,0-1.1,0c0,0-0.1,0-0.1,0l0,0.1c0,0.1,0,0.1,0,0.2c0,0.1,0,0.2,0,0.4c0,0.2-0.1,0.4-0.1,0.4
			l0-1.1c-0.1,0.6-0.1,1.3-0.1,1.8c0,0.2,0,0.4,0,0.6c0,0.2-0.1,0.4-0.2,0.8c0,0.3-0.2,0.7-0.3,1.1c0,0.1,0,0.2-0.1,0.3
			c0,0,0,0.1,0,0.1c0,0,0,0.1,0,0.1c0.1,0,0.2,0,0.3,0c0,0-0.1,0-0.1-0.1c0,0-0.1,0,0-0.1c0.1-0.1,0.1-0.2,0.2-0.3
			c0.1-0.2,0.3-0.3,0.4-0.4c0,0,0.1,0,0.1-0.1l0,0.3c0.3,0.1,0.5,0.1,0.5,0.1l0.1,0c0.1,0,0.2,0,0.3,0c0,0-0.1,0.1-0.1,0.1l0.2,0
			l0-0.1c0.1,0,0.2,0,0.3,0c-0.1,0.3,0,0.6,0,0.9c-0.1,0-0.2-0.2-0.3-0.3c0-0.1-0.1-0.1-0.1-0.1c0-0.1-0.1-0.1-0.1-0.2
			c0-0.1-0.1-0.1-0.1,0.1c0.1,0.1,0.1,0.3,0.2,0.4c0,0,0,0,0,0c-0.1,0.1-0.1,0-0.2,0c0,0,0,0-0.1,0c0,0-0.1,0-0.2,0.3c0,0,0,0,0,0
			c0,0,0,0,0,0c0,0,0,0.1,0,0.1c-0.4-0.2-0.5-0.3-1.2-0.6c0.1,0.2-0.3,0.1-0.9,0c-0.3-0.2-0.6-0.3-0.9-0.5c0,0,0,0,0,0
			c-0.7-0.4-1.2-0.8-1.7-1.2c-0.5-0.4-0.9-0.8-1.4-1.4c0-0.1-0.2-0.3-0.2-0.4c-0.1-0.1-0.1-0.3,0-0.2c-0.1-0.1-0.2-0.2-0.3-0.3
			c-0.2,0-0.4-0.1-0.6-0.2c-0.4-0.3-0.1-0.2,0.1-0.1c0.3,0.1,0.8,0.3,0.4,0c0,0-0.2,0-0.3,0c-0.1,0-0.3-0.1-0.5-0.1
			c-0.4-0.1-0.8-0.2-1.2-0.3c0.1,0.1,0.4,0.2,0.8,0.4c0.4,0.1,0.8,0.2,1.3,0.4c0,0.1,0.1,0.1,0.1,0.1c0,0-0.1,0-0.2,0
			c-0.1,0-0.2,0-0.3,0l-0.2-0.1c-1.6-0.6-3.1-1.1-4.5-1.4c-0.5-0.1-1.3-0.3-2.2-0.4c-1.2-0.1-2.5-0.1-3.5-0.1
			c-0.2,0.1-0.6,0.2-0.7,0.2c-1,0.2-2,0.5-2.8,0.8c-0.1,0-0.2,0.1-0.3,0.1c-0.2,0.1-0.4,0.2-0.4,0.2l0.2-0.1c-0.8,0.4-1.5,0.8-2,1.1
			l-0.1,0c-0.2,0.1-0.3,0.3-0.5,0.4c0,0,0,0,0-0.1c0,0-0.2,0.2-0.3,0.3c0,0,0,0.1-0.1,0.1c-0.1,0.1-0.2,0.2-0.2,0.2
			c0-0.1,0.1-0.2,0-0.1c0,0,0,0.2-0.1,0.3c-0.2,0.2-0.4,0.4-0.5,0.5l0,0c0,0,0,0,0,0c-0.2,0.1-0.3,0.3-0.5,0.4c0,0,0,0,0,0
			c0,0,0,0,0,0c-0.3,0.3-0.6,0.6-0.9,0.9c0,0,0,0,0,0c0,0,0,0,0,0c-2.1,2.2-3.3,5-3.3,8.2c0,0.7,0.1,1.4,0.2,2
			c-0.7-1-1.3-2.1-1.8-3.3l-0.3-0.7l-1.9-0.7C99.6,136.9,99.7,136.1,99.5,135.3z M104.4,110.4L104.4,110.4
			C104.4,110.4,104.4,110.3,104.4,110.4L104.4,110.4C104.4,110.3,104.4,110.3,104.4,110.4z M103.8,111
			C103.8,111,103.9,111,103.8,111L103.8,111C103.8,111,103.8,111,103.8,111L103.8,111z M109.3,109.7L109.3,109.7L109.3,109.7
			C109.3,109.7,109.3,109.7,109.3,109.7C109.3,109.7,109.3,109.7,109.3,109.7z M119.1,103.5L119.1,103.5L119.1,103.5L119.1,103.5z
			 M149,114c-0.2-0.2-0.6-0.5-0.6-0.7C148.7,113.4,148.8,113.7,149,114z M140.9,120c0.2,0,0.5,0.1,0.8,0.3
			C141.4,120.2,141.1,120.1,140.9,120z M133.5,133.3C133.5,133.3,133.5,133.3,133.5,133.3L133.5,133.3
			C133.5,133.3,133.5,133.3,133.5,133.3z M95.7,136.4L95.7,136.4L95.7,136.4L95.7,136.4z M153.1,111.9c-0.1-0.2-0.3-0.4-0.4-0.6
			C152.8,111.4,153,111.6,153.1,111.9z M95.6,136.3L95.6,136.3C95.6,136.4,95.6,136.4,95.6,136.3L95.6,136.3
			C95.6,136.3,95.6,136.3,95.6,136.3z M151.2,128.2c0.1-0.4,0.4-0.5,0.7-0.9C151.8,127.6,151.4,128.1,151.2,128.2z"/>
		<path class="st0" d="M147.9,104.4c0.1,0.2,0.2,0.3,0.2,0.3C148.1,104.6,148,104.5,147.9,104.4z"/>
		<path class="st0" d="M147.9,104.4C147.9,104.4,147.9,104.4,147.9,104.4C147.9,104.4,147.9,104.4,147.9,104.4
			C147.9,104.4,147.9,104.4,147.9,104.4z"/>
		<path class="st0" d="M154.1,112.9c0,0.1,0,0.1,0,0.1C154.2,113.1,154.2,113.1,154.1,112.9z"/>
		<path class="st0" d="M136.4,139.2L136.4,139.2C136.3,139.2,136.3,139.2,136.4,139.2L136.4,139.2z"/>
		<path class="st0" d="M124.4,99.2c0.3,0,0.4,0,0.5,0C124.9,99.2,124.8,99.2,124.4,99.2z"/>
		<path class="st0" d="M112,100.5c0,0-0.4,0.3-0.4,0.3c0.2-0.1,0.3-0.1,0.4-0.1L112,100.5z"/>
		<path class="st0" d="M114.5,100.2c-0.1,0-1.1-0.1-0.2,0.1C114.4,100.2,115.8,100.6,114.5,100.2z"/>
		<path class="st0" d="M134,97.2c0.6,0.2,0.9,0.4,0.7,0.1c-0.9-0.5-0.3,0.1-1.1-0.4C133.3,96.9,134.3,97.3,134,97.2z"/>
		<path class="st0" d="M134,97.2c-0.1,0-0.2-0.1-0.3-0.1C133.9,97.2,134,97.2,134,97.2z"/>
		<path class="st0" d="M152.5,126C152.5,126.1,152.5,126.1,152.5,126C152.5,126.1,152.5,126.1,152.5,126c0.1,0,0.1,0.1,0.1,0.1
			L152.5,126C152.6,126,152.5,126,152.5,126z"/>
		<polygon class="st0" points="145.7,131.7 145.8,131.7 145.5,131.6 		"/>
		
			<ellipse transform="matrix(4.833055e-002 -0.9988 0.9988 4.833055e-002 0.2543 269.1446)" class="st0" cx="141.4" cy="134.4" rx="0" ry="0"/>
		<path class="st0" d="M141.4,134.5C141.4,134.4,141.4,134.4,141.4,134.5C141.4,134.4,141.4,134.4,141.4,134.5L141.4,134.5
			L141.4,134.5L141.4,134.5c-0.1,0.3-0.1,0.4-0.2,0.5c-0.1,0.2-0.1,0.3,0,0.3c0.1-0.2,0.1-0.5,0.1-0.7
			C141.4,134.4,141.4,134.5,141.4,134.5z"/>
	</g>
	<path class="st1" d="M128.5,108.1c0.1,0-1.9-4.1-1.9-4.1s-0.4-1.1-1.4-1.1c0,0-0.8,0-1.5,0.6c0,0-0.5,0.6-1.4,0.4
		c0,0-1.2,0.2-1.6-0.7c0,0-0.6-0.9-1.7-0.8c0,0-1.1,0.1-1.4,0.8c0,0-0.4,1-1.4,1.1c0,0-1,0.2-1.7-0.4c0,0-0.5-0.6-1.5-0.2
		c0,0-0.9,0.4-1.1,1.2c0,0-0.1,1-1.4,1.3c0,0-1.5,0.3-1.8,0.1c0,0-0.8-0.2-1.2,0c0,0-0.6,0.4-0.7,1.3c0,0,0,1-1,1.7
		c0,0-0.8,0.6-1.7,0.5c0,0-1.1,0-1.5,0.4c0,0-0.6,0.3-0.6,1.6c0,0,0.1,0.8-0.4,1.2c0,0-0.3,0.2-1.9,0.7c0,0-0.7,0.1-1.1,0.7
		c0,0-0.5,0.5,0,1.3c0,0,0.8,0.7,0.3,1.7c0,0-0.6,0.6-1.2,1c0,0-0.9,0.4-0.9,1.5c0,0-0.1,0.7,0.5,1.3c0,0,1.1,1-0.2,1.7l-0.9,0.8
		c0,0-0.8,0.7,0,1.9c0,0,1.3,1.7,0.1,2.4c0,0-1.6,1.5-0.5,2.7c0,0,1.5,1.3,0.8,2.2c0,0-1.7,1.8-0.1,2.6c0,0,2.1,1.2,1.2,2.7
		c0,0-1,1.6,0.8,2.3l1.4,0.5c0,0-5.8-18,4.5-27.2C104.4,113.7,112.5,100.7,128.5,108.1z"/>
	<path class="st2" d="M143.3,129.7c0,0,5.3-1.9,5.4-2.9l-6.8-1c0,0-10.8-4.8-12.8-2.8c0,0-2.7,2.4-0.1,6.7
		C129,129.7,140.7,130.9,143.3,129.7z"/>
	<path class="st1" d="M139,121.6c0,0,10.4,4.5,14.8,0.6c0,0,1.5-1.6-1-6.5c0,0-4.6-10-22.1-17.1c0,0-2.9-0.9-2.2,1.6
		c0,0,0.3,1.9,1.8,4.2c0,0,2.3,4.8-1.9,2.5c0,0-9.7-6.9-20.5,1.6c0,0-10.7,8-10.5,18.7c0,0-1.9,25.6,22.9,24.6c0,0,7.7-0.8,8.7-8.7
		c0,0,1-13.5-12.8-11.8c0,0-6.5,1.1-4.9,8.2c0,0,1.5,5.8,8,2.9c0,0,2.8-2.1,0.2-5.9c0,0-0.7-1-1.4-0.4c0,0-1,0.7,0.3,2.1
		c0,0,1.2,1.6-0.8,2.6c0,0-2.8,1.2-3.4-2.7c0,0-1.1-4.8,6.3-4.1c0,0,5.7,0.4,3.8,8.5c0,0-2.8,9.8-14.6,0.8c0,0-6.5-4.8-0.2-12
		c0,0,5.4-5.6,15.3-1.1c0,0,3,4.1,11.2,6.4c0,0,1.1,0.3,1.2-0.3c0,0,0.2-0.6-0.8-1.1c0,0-1.3-0.4-1.4-0.5c-0.4-0.1-0.3-0.6,0.2-0.5
		c0,0,1.5,0.4,2,0.6c0,0,0.7,0.3,0.9-0.3c0,0,0.3-0.6-0.4-0.9l-2-0.8c-0.5-0.2-0.4-0.7,0.1-0.6c0,0,1.5,0.4,2.6,0.6
		c0,0,0.3,0.2,0.5-0.3c0,0,0.3-0.5-0.3-0.7c0,0-3.3-1.4-5.6-1.6c0,0-3.1-0.4-3.9-2c0,0-1.1-2-0.7-4.2c0,0-0.1-1.8,4.7-0.7
		c0,0,5.6,0.8,8.4,3.1c0,0,3.1,2,5.2,1.1c0,0,2.3-0.5,2.7-1.4c0,0,0.4-1.1-1.8-1C147.7,125,140.9,125.4,139,121.6z"/>
	<path class="st2" d="M124.4,129.1c0,0-5.3-6-8.5-5.6c0,0-8.6,0.6-10.4,5.6c0,0-5.5,13.9,8,16.4c0,0-8.9-3.9-6.1-11
		c0,0,3.4-10.2,17.5-4.4C124.9,130.1,124.5,129.3,124.4,129.1z"/>
	<circle class="st0" cx="139.8" cy="109.3" r="7.1"/>
	<circle class="st1" cx="140" cy="109.2" r="5.9"/>
	<circle class="st0" cx="139.9" cy="109.3" r="5"/>
	<circle class="st1" cx="140.3" cy="109.3" r="3.4"/>
	<circle class="st0" cx="140.7" cy="109.4" r="2.1"/>
	<circle class="st1" cx="141" cy="109.4" r="1.1"/>
	<ellipse class="st0" cx="141.1" cy="109.4" rx="0.7" ry="0.8"/>
	<g>
		<defs>
			<path id="SVGID_1_" d="M139,121.6c0,0,10.4,4.5,14.8,0.6c0,0,1.5-1.6-1-6.5c0,0-4.6-10-22.1-17.1c0,0-2.9-0.9-2.2,1.6
				c0,0,0.3,1.9,1.8,4.2c0,0,2.3,4.8-1.9,2.5c0,0-9.7-6.9-20.5,1.6c0,0-10.7,8-10.5,18.7c0,0-1.9,25.6,22.9,24.6
				c0,0,7.7-0.8,8.7-8.7c0,0,1-13.5-12.8-11.8c0,0-6.5,1.1-4.9,8.2c0,0,1.5,5.8,8,2.9c0,0,2.8-2.1,0.2-5.9c0,0-0.7-1-1.4-0.4
				c0,0-1,0.7,0.3,2.1c0,0,1.2,1.6-0.8,2.6c0,0-2.8,1.2-3.4-2.7c0,0-1.1-4.8,6.3-4.1c0,0,5.7,0.4,3.8,8.5c0,0-2.8,9.8-14.6,0.8
				c0,0-6.5-4.8-0.2-12c0,0,5.4-5.6,15.3-1.1c0,0,3,4.1,11.2,6.4c0,0,1.1,0.3,1.2-0.3c0,0,0.2-0.6-0.8-1.1c0,0-1.3-0.4-1.4-0.5
				c-0.4-0.1-0.3-0.6,0.2-0.5c0,0,1.5,0.4,2,0.6c0,0,0.7,0.3,0.9-0.3c0,0,0.3-0.6-0.4-0.9l-2-0.8c-0.5-0.2-0.4-0.7,0.1-0.6
				c0,0,1.5,0.4,2.6,0.6c0,0,0.3,0.2,0.5-0.3c0,0,0.3-0.5-0.3-0.7c0,0-3.3-1.4-5.6-1.6c0,0-3.1-0.4-3.9-2c0,0-1.1-2-0.7-4.2
				c0,0-0.1-1.8,4.7-0.7c0,0,5.6,0.8,8.4,3.1c0,0,3.1,2,5.2,1.1c0,0,2.3-0.5,2.7-1.4c0,0,0.4-1.1-1.8-1
				C147.7,125,140.9,125.4,139,121.6z"/>
		</defs>
		<clipPath id="SVGID_2_">
			<use xlink:href="#SVGID_1_"  style="overflow:visible;"/>
		</clipPath>
		<g class="st3">
			<path class="st4" d="M126.7,105.2l-1.8,13.9l-7.1-14.9C117.8,104.2,122.4,103,126.7,105.2z"/>
			<path class="st4" d="M115.6,104.4l1.5,15.1l-9.5-10.9C107.6,108.6,109.1,106.4,115.6,104.4z"/>
			<path class="st4" d="M106.2,110.1l4.9,11.2l-9.8-6.1C101.3,115.2,103.8,111.3,106.2,110.1z"/>
			<path class="st4" d="M107.7,123.8l-7.4-7.3c0,0-2.1,4.1-2.2,5.7L107.7,123.8z"/>
			<path class="st4" d="M104.4,128.1l-6.8-3.6c0,0-0.4,2.4-0.3,4.6L104.4,128.1z"/>
			<path class="st4" d="M104.2,132l-6,3.6c0,0-0.7-2.5-0.6-4.2L104.2,132z"/>
			<path class="st4" d="M104.2,137.4l-4.3,3.1c0,0-0.9-1.7-1-2.4L104.2,137.4z"/>
			<path class="st4" d="M105,141.3l-2.3,3.5c0,0-1.4-1.5-1.5-2.2L105,141.3z"/>
			<path class="st4" d="M107.6,145.1l-0.9,3.7c0,0-1.9-1.3-2-1.8L107.6,145.1z"/>
			<path class="st4" d="M111.7,147.5l-0.3,3.6c0,0-1.5-0.2-2.1-0.9L111.7,147.5z"/>
			<path class="st4" d="M116.6,149l0.9,3.2c0,0-1.4,0.3-2.7-0.2L116.6,149z"/>
			<path class="st4" d="M120.6,149l2,2.3c0,0-1.6,0.9-2.7,0.7L120.6,149z"/>
			<path class="st4" d="M124.2,146.9c-0.1-0.1,3.1,0.8,3.1,0.8s-1.3,2-2.4,2.4L124.2,146.9z"/>
			<path class="st4" d="M125.9,143.6l3.4-0.8c0,0-0.2,2.1-0.7,2.7L125.9,143.6z"/>
			<path class="st4" d="M125.9,140.8l3.2-1.6c0,0,0.3,1.6,0.2,2.2L125.9,140.8z"/>
			<path class="st4" d="M127.3,135.1l-1.4,2h2.7C128.7,137.1,127.6,135.1,127.3,135.1z"/>
		</g>
	</g>
</g>
</svg>
