<?xml version="1.0" encoding="utf-8"?>
<!-- Generator: Adobe Illustrator 21.0.0, SVG Export Plug-In . SVG Version: 6.00 Build 0)  -->
<svg version="1.1" id="Layer_1" xmlns="http://www.w3.org/2000/svg" xmlns:xlink="http://www.w3.org/1999/xlink" x="0px" y="0px"
	 viewBox="0 0 107 98" style="enable-background:new 0 0 107 98;" xml:space="preserve">
<style type="text/css">
	.st0{fill:#FFFFFF;}
	.st1{fill:none;}
	.st2{opacity:0.5;fill:#B3B3B3;enable-background:new    ;}
	.st3{fill:#CCCCCC;}
</style>
<g>
	<g>
		<path class="st0" d="M15.7,88.9L15.7,88.9c-0.2,0-0.2,0-0.6,0.1h-0.2l-0.1,0.1c-0.9,0.9-1.8,1.4-2.7,1.4c0,0-0.2-0.1-0.5-0.4
			c-0.5-0.7-0.9-1.8-1.2-3V87v-0.2c0-0.1-0.1-0.3-0.2-0.9v-0.4c0-0.1,0-0.3-0.1-0.4l0,0v-0.2c0-0.3-0.1-0.5-0.1-0.7h0.1l-0.4-2
			l0.1-0.1v-0.2c0-0.6-0.1-1-0.1-1.4v-0.3l0.2-0.3l-0.2-0.3v-1.3c0-0.4,0-0.8,0.1-1.4v-0.2l-0.1-0.1l0.1-0.2L9.7,76l0.1-1.9v-0.2
			l-0.1-0.3c0-0.6,0.1-1.1,0.2-1.4l0.1-0.2L9.9,72c0.3-1.3,0.5-1.5,0.5-1.6l0.1-0.1c0.3-0.8,0.9-1.3,1.7-1.7l0.6-0.1
			c0.1,0,0.4,0,1.2,0.3v0.5l0.9-0.4c0.2-0.1,0.6-0.3,0.8-0.5H16l-0.2-0.8c-0.3-1.3-1.5-1.9-3.7-1.9h-0.3h-0.2
			c-0.7,0.2-1.2,0.4-1.5,0.7c-0.8,0.4-1.3,1-1.7,1.6c-1.1,1.6-1.6,4.1-1.6,7.5v0.2c0,0.1,0,0.1,0,0.2v0.2c0,0,0,0.1,0,0.2v0.1v1.4
			l0,0c0,0.2-0.1,0.3-0.1,0.5v0.1l0.1,0.5c0,0.1,0,0.1,0,0.2v0.4H6.5l0.2,0.9l0,0v0.5l-0.2,0.7h0.2c0,0.1,0,0.2,0,0.3s0,0.1,0,0.2
			v0.1l0.1,0.2l0,0c0,0.1,0,0.3,0.1,0.9l0,0L7,84v0.1l0,0l0.1,0.7c0,0.2,0,0.3,0.1,0.4H7.1l0.4,1.6c0,0.1,0,0.1,0,0.2L8,89.1v0.1
			c1.1,2.7,2.3,4,3.7,4h0.1l0,0c0,0,0,0,0.1,0h0.5c0.8,0,1.7-0.2,2.7-0.5h0.1l0.1-0.1l0.1-0.1h0.1l1.8-1.6v-0.5c0-0.1,0-0.3-0.1-0.4
			C17,89.4,16.5,89,15.7,88.9z"/>
		<path class="st0" d="M29.3,90L29.3,90l-0.1-0.8c-0.3-1.1-1-4.7-1.9-10.9c0-0.1,0-0.2,0-0.2v-0.6h-0.2c-0.1-0.3-0.1-0.8-0.2-1.6
			l-1.7-6.3c-0.3-0.9-0.5-1.4-0.7-1.7c-0.1-0.5-0.3-1.2-1.4-1.6l-0.3-0.1l-0.1,0.1L22,65.8v0.8c-0.1,0-0.1,0-0.2,0.1l-0.5,0
			l-0.1,0.4c-0.3,1.5-0.5,3.3-0.8,5.6l-0.1,0.7h0.1c-0.7,5-0.7,5.2-0.7,5.4l0,0c0,0.1,0,0.2-0.1,0.2v0.2l0.1,0.2
			c-0.1,0.8-0.2,1.7-0.3,2.6v0.3c0,0.1,0,0.2,0,0.2l-0.1,0.7l0,0c-0.4,2.6-0.6,3.6-0.7,4.1h-0.4l0.1,0.5v0.6c0,0.1,0,0.2,0,0.2
			c0,0.3-0.1,0.4-0.1,0.6h-0.1v0.3L18,89.7l0.1,0.2c0,0.1,0,0.2,0,0.2c-0.1,0.6-0.2,1.1-0.3,1.6l-0.1,0.1v0.6l0.1,0.2
			c0.3,0.4,0.5,0.8,0.9,0.8h0.2l0,0c0,0,0,0,0.1,0h0.1c0.4-0.1,0.6-0.1,0.6-0.1h0.4l0.2-0.3c0.2-0.4,0.3-0.4,0.3-0.4l0.4-0.2
			l-0.2-0.7l0.2-1h-0.1l0.1-0.6V90v-0.3c0.2-1.3,0.4-2.3,0.6-3.1l0.1-0.3l-0.1-0.1c0.1-0.3,0.2-1,0.5-2.5v-0.3v-0.1
			c0-0.2,0.1-0.3,0.1-0.5l0.1-0.7l0,0c0-0.2,0-0.4,0-0.7c0.5,0,0.7,0.1,0.7,0.1h0.1v0.1h0.2l0.5,0.1l0,0l0.7-0.1h0.2
			c0.7,4.7,1.2,7.6,1.5,8.8c0.2,1.4,0.6,3.1,1.8,3.1c0.2,0,0.4-0.1,0.6-0.3c0.1,0,0.3-0.1,0.4-0.2l0.7,0.3v-1.7
			c0-0.2-0.1-0.3-0.1-0.4L29.3,90z M24.3,78.9L24,78.7l-0.3,0.2h-0.4l-0.5-0.1c0-0.6,0-1.1,0.1-1.6l0.1-0.7c0.2-1.1,0.4-2,0.4-2.5
			C23.8,75.3,24.1,77,24.3,78.9C24.4,78.9,24.3,78.9,24.3,78.9z"/>
		<path class="st0" d="M43.6,89.1l-0.3-0.5c0-0.4,0-1,0-1.5h0.1l-0.1-0.7c0-0.3-0.1-0.5-0.1-0.6s0-0.1,0-0.2V85h0.1l-0.2-1.3v-0.5
			V83c0-0.1,0-0.1,0-0.2v-0.1l0,0c0-0.1,0.1-0.3,0.1-0.4l0.1-0.7h-0.1v-0.5c0-0.1,0-0.2,0-0.2c0-0.1,0-0.2,0-0.2l0.1-0.1l-0.1-0.3
			c0-0.1,0-0.2-0.1-0.3l0.1-0.9L43.1,79v-0.1c0,0,0,0,0-0.1v-1.3h0.2l-0.2-1v-0.2l0.2-1h-0.2v-0.2c0-0.6,0-1-0.1-1.2l0.1-0.1
			L43,73.2l0.3-0.5l-0.2-0.1l0.2-0.8h-0.2l-0.3-2.6v-0.4l-0.2-0.5v-0.7c0-0.1,0-0.2-0.1-0.4l0,0c0-0.2-0.1-0.4-0.2-0.5
			c-0.1-0.3-0.4-0.6-0.9-0.7h-0.2c-0.3,0-0.7,0.1-1.2,0.2h-0.1l-0.1,0.1c-0.1,0.1-0.2,0.2-1.9,3.3c-0.7,0.9-1.1,1.6-1.4,2
			c-0.1-0.1-0.2-0.3-0.3-0.4c-1-1.4-1.7-2.3-2.2-2.8c0-0.2-0.1-0.3-0.2-0.5s-0.2-0.3-0.3-0.3c-0.3-1-0.8-1.4-1.5-1.4h-0.3
			c-0.2,0-0.3,0-0.4,0.1c-0.5,0.1-1,0.4-1.4,1.5v0.1l0.1,1c0,0.1,0,0.2,0,0.3v0.5l0,0c0,0,0,0,0,0.1v0.1l-0.2,0.2l0.2,0.3l-0.1,0.2
			l0.2,0.3v0.5c0,0.2,0,0.3,0,0.5H30l0.1,0.7c0.1,0.4,0.1,0.7,0.1,1h-0.1l0.2,1v1.1v0.2c0,0.1,0,0.1,0,0.2s0,0.1,0,0.2l0.2-0.3
			l0.1,0.6c-0.1,1.1-0.1,2.3-0.1,3.5v0.2c0,0.1,0,0.2,0,0.3v1.3h-0.1l0.1,0.4v0.1l0.1,0.2l0.1,0.3L30.6,83v0.2c0,0,0,0,0,0.1h-0.2
			l0.2,0.8l-0.1,0.2l0.2,0.3v1.5l-0.2,1h0.1v0.3c0,1.2,0.1,1.8,0.2,2.1l-0.2,0.2v0.1c0,0.2,0,0.3,0.1,0.4l-0.2,0.3l0.1,0.3L30.5,91
			l0.2,0.3v0.6c0,0.7,0.4,1.1,1.1,1.2h0.3c0.4,0,0.8-0.1,1-0.3c0.7-0.3,0.8-0.9,0.8-1.2l-0.2-2.9l0,0l0.1-0.2l-0.1-0.2
			c-0.1-0.3-0.1-0.8-0.1-1.3c0,0,0-0.1,0.1-0.3l0.2-0.8h-0.1l0.1-0.4h-0.2l0.1-0.2v-0.2c0-0.1-0.1-0.4-0.1-2
			c0.1-1.1,0.1-1.7,0.1-1.9v-0.1V81v-0.1l-0.1-0.1c0,0,0-0.1-0.1-0.6c0.1-0.7,0.1-1.1,0.2-1.2l0.3-0.8h-0.2v-0.1V78v-1.1
			c0-0.2,0-0.5,0-0.8v-0.6H34v-0.4V75l0,0v-0.1v-0.1c0-0.5-0.1-1.2-0.2-2.2c1,1.4,1.5,2,1.6,2.2c0.1,0.4,0.5,0.7,1.3,0.9h0.4l0,0
			c0,0,0,0,0.1,0h0.4l0.2-0.1c0.1,0,0.2-0.1,0.4-0.2l0.3-0.1l0.1-0.3c0.2-0.6,0.6-1.5,1.3-2.5c0,0,0,0,0-0.1v0.9l0,0c0,0,0,0,0,0.1
			v0.3c0,0.2,0,0.3,0.1,0.5c0,0.1,0,0.1,0,0.2h-0.1l0.2,0.9L40,75.6l0.2,0.3v1.9l-0.2,1h0.2v0.1c0,0.2,0,0.4,0.1,0.6l-0.1,0.2v0.2
			c0.1,0.3,0.1,0.4,0.1,0.5v0.2l-0.2,1h0.2v0.5h-0.2l0.1,0.6l-0.1,0.6h0.2l-0.2,0.8h0.2v0.3L40.2,85h0.1v0.4c0,0.1,0,0.2,0,0.2
			l-0.4,0.1l0.2,0.3v0.1l-0.2,0.3l0.2,0.3v0.9l0,0v0.7c0.1,0.9,0.1,1.2,0.1,1.2c0,0.6-0.1,0.9-0.1,1.1L40,90.8l0.1,0.5
			c0,0.1,0,0.1,0,0.2v0.1c0,1,0.5,1.4,0.8,1.6l0.1,0.1h0.3c0.6,0,1-0.1,1.2-0.3c0.7-0.3,0.8-0.8,0.8-1.1v-0.1c0-0.3-0.1-0.5-0.1-0.7
			v-1.7L43.6,89.1z"/>
		<path class="st0" d="M56.3,90L56.3,90l-0.1-0.8c-0.3-1.1-1-4.7-1.9-10.9c0-0.1,0-0.2,0-0.2v-0.6h-0.2c-0.1-0.3-0.1-0.8-0.2-1.6
			l-1.7-6.3c-0.3-0.9-0.5-1.4-0.7-1.7c-0.1-0.5-0.3-1.2-1.4-1.6l-0.3-0.1l-0.1,0.1L49,65.8v0.8c-0.1,0-0.1,0-0.2,0.1l-0.5,0
			l-0.1,0.4c-0.3,1.5-0.5,3.3-0.8,5.6l-0.1,0.7h0.1c-0.7,5-0.7,5.2-0.7,5.4l0,0c0,0.1,0,0.2-0.1,0.2v0.2l0.1,0.2
			c-0.1,0.8-0.2,1.7-0.3,2.6v0.3c0,0.1,0,0.2,0,0.2l-0.1,0.7l0,0c-0.4,2.6-0.6,3.6-0.7,4.1h-0.4l0.1,0.5v0.6c0,0.1,0,0.2,0,0.2
			c0,0.3-0.1,0.4-0.1,0.6h-0.1v0.3l-0.2,0.2l0.1,0.2c0,0.1,0,0.2,0,0.2c-0.1,0.6-0.2,1.1-0.3,1.6l-0.1,0.1v0.6l0.1,0.2
			c0.3,0.4,0.5,0.8,0.9,0.8h0.2l0,0c0,0,0,0,0.1,0H46c0.4-0.1,0.6-0.1,0.6-0.1H47l0.2-0.3c0.2-0.4,0.3-0.4,0.3-0.4l0.4-0.2l-0.2-0.7
			l0.2-1h-0.1l0.1-0.6V90v-0.3c0.2-1.3,0.4-2.3,0.6-3.1l0.1-0.3l-0.1-0.1c0.1-0.3,0.2-1,0.5-2.5v-0.3v-0.1c0-0.2,0.1-0.3,0.1-0.5
			l0.1-0.7l0,0c0-0.2,0-0.4,0-0.7c0.5,0,0.7,0.1,0.7,0.1H50v0.1h0.2l0.5,0.1l0,0l0.7-0.1h0.2c0.7,4.7,1.2,7.6,1.5,8.8
			c0.2,1.4,0.6,3.1,1.8,3.1c0.2,0,0.4-0.1,0.6-0.3c0.1,0,0.3-0.1,0.4-0.2l0.7,0.3v-1.7c0-0.2-0.1-0.3-0.1-0.4L56.3,90z M51.2,78.9
			l-0.3-0.2l-0.3,0.2h-0.4l-0.5-0.1c0-0.6,0-1.1,0.1-1.6l0.1-0.7c0.2-1.1,0.4-2,0.4-2.5C50.7,75.3,51,77,51.2,78.9
			C51.3,78.9,51.2,78.9,51.2,78.9z"/>
		<path class="st0" d="M65,90.4l-4.4,0.3v-1.3l0,0c0-0.8-0.1-1.2-0.1-1.5c0-0.1,0.1-0.2,0.1-0.3v-0.3c0-0.1,0-0.1,0-0.2v-0.2
			l-0.1-0.1v-0.4c0-0.2,0-0.4,0-0.6l0.1-0.5l-0.1-1.1c0-0.5,0-1.2-0.1-1.9c0,0,0-0.1,0.1-0.3v-0.1L60.4,81c0-0.4,0-0.9,0.1-1.4v-0.1
			v-0.1c0-0.3-0.1-0.6-0.1-0.7c0.1-0.8,0.1-1,0.1-1v-0.2l0,0c0,0,0,0,0-0.1v-0.6v-0.2c0.1-0.1,0.1-0.3,0.1-0.5v-0.8l0,0
			c0-0.1,0-0.1,0-0.2l0.1-0.4l-0.1-0.1c0.1-0.3,0.1-0.6,0.1-0.8v-0.6l0.2-0.9v-0.1l0,0l0,0l-0.1-0.1l0.1-0.1l-0.1-0.4v-0.2
			c0-0.2,0-0.3-0.1-0.4l0.2-2.8l-0.1-0.1v-0.2c-0.3-0.8-0.8-1.2-1.6-1.2h-0.1l-0.2-0.1l-0.3,0.2c-0.4,0.3-0.9,0.8-0.9,1.8v0.1v0.1
			v0.1c0,0.1,0,0.2,0,0.3c0,0.2,0,0.4,0,0.5v0.1c0,0.2,0,0.5,0.1,0.8c0,0.1-0.1,0.2-0.1,0.3v0.2v0.1c0,0.2,0,0.3,0,0.3
			c-0.1,4.8-0.2,6.4-0.3,6.9v0.2l0.1,0.1l-0.1,0.5l0.1,0.7c0,0.1-0.1,0.2-0.1,0.3l-0.1,0.1l0.1,0.2V81c0,0.4,0,0.8,0.1,1.1
			c0,0.1,0,0.2,0,0.3v0.1l0,0h-0.2l0.2,0.8c0.1,0.4,0.1,0.5,0.1,0.5v0.1c0,0.2,0,0.4-0.1,0.6v0.1v0.1c0.1,0.3,0.1,0.7,0.1,1.2v0.7
			l-0.2,0.9h0.3v0.7l-0.2,1h0.2l0.1,0.1v0.1c0,0.1,0,0.3,0,0.6h-0.2l0.1,0.6l-0.1,0.6h0.1l0.1,0.6c0,0.1,0,0.2,0,0.3v0.2l0.1,0.2
			c0.4,0.6,1.2,0.9,2.3,0.9c0.3,0,0.6,0,1-0.1l0.1,0.1l2-0.2c2,0,3-0.5,3-1.6V91h-0.1L65,90.4z"/>
		<path class="st0" d="M75.8,90.1L75.6,90h-1.1H74c-0.1,0-0.2,0-0.3,0h-0.1c-0.3,0.1-0.4,0.1-0.5,0.1h-0.6l-0.3-0.2l-0.3,0.2h-0.1
			c-0.9,0-1.6,0-2.1-0.1v-0.1v-0.8l0.1-0.3l-0.1-0.2v-2.4l0.1-1h-0.1v-0.1l0.1-0.2l-0.2-0.3c0-0.4,0-1.2,0.1-2.2v-0.1v-0.1
			c0-0.1,0-0.1,0-0.2v-0.2l-0.1-0.1v-0.5l0.1-0.3l0.6-0.1h0.9l0.6,0.1l0.1-0.1c1.1-0.4,1.4-1.1,1.4-1.6v-0.1V79c-0.3-0.9-1-1-1.3-1
			c-0.1,0-0.3,0-0.5,0l-0.1-0.1h-0.2c-0.4,0-0.7,0.1-0.9,0.1h-0.2l-0.5-0.1l-0.1-0.7V77h0.2l-0.2-0.8c-0.1-0.3-0.1-0.5-0.1-0.8
			l0.1-0.2l-0.1-0.6v-0.3c0-0.4,0-0.8-0.1-1.3h0.1v-1.2l0,0v-0.1l0.1-0.5v-1.3l0,0c0-0.1,0-0.2,0-0.2v-0.2h0.7c0.3,0,1,0,2,0.1
			l0.2,0.1h0.2c1.7,0,2.2-0.9,2.2-1.4v-0.2l-0.1-0.2c-0.2-0.4-0.5-0.7-0.9-0.9l-0.1-0.1h-0.1c-0.1,0-0.1,0-0.2,0h-0.2
			c-0.1,0-0.1,0-0.2,0h-0.2c-0.1,0-0.2,0-0.3,0c-0.2,0-0.4,0-0.5,0h-1.3v-0.1h-0.5c-0.1,0-0.1,0-0.2,0l-0.4-0.1v0.1
			c-0.1,0-0.1,0-0.2,0.1h-0.9c-0.6,0-1.2,0.3-1.8,0.9L66.5,68v0.3c0,0.1,0,0.3,0.1,0.5c0,0.2-0.1,0.4-0.1,0.6v0.1l0,0c0,0,0,0,0,0.1
			V71c0,0.4,0,0.9,0.1,1.6h-0.2l0.2,0.7v0.5h0.1v0.5c0,1.3,0,2.4,0.1,3.3c0,0.1-0.1,0.2-0.1,0.4v0.2c0,0.1,0.1,0.2,0.1,0.3v0.3
			l0.1,0.2v2.7h-0.1l0.1,1.4V84l-0.1,0.7v0.1l0,0l-0.1,0.3h0.1v0.1V89l0,0c0,0,0,0,0,0.1v0.3l0,0c0,0,0,0,0,0.1v0.4l0,0
			c0,0,0,0,0,0.1v2.3c0,0.2,0,0.3,0.1,0.5v0.1v0.7h0.6c0.1,0,0.1,0,0.1,0l0,0l0.3,0.2l0.3-0.2l0.9,0.2v-0.3l1,0.1v-0.1h0.1
			c0.1,0,0.2,0,0.2,0v0.1l1.2-0.1h0.1h0.2l0.2-0.1c0.1,0,0.2,0,0.4,0h0.1h0.3H73h0.5l1,0.1v-0.1h0.1h0.1h0.1c0.1,0,0.4,0,0.6-0.1
			c0.6-0.1,1-0.6,1.2-1l0.1-0.2v-0.2C76.7,91.1,76.5,90.5,75.8,90.1z"/>
		<path class="st0" d="M88.3,78.4L88.3,78.4h-0.1c0,0,0,0,0-0.1v-0.7v-0.2c0-0.1,0-0.1,0-0.2v-0.1c-0.1-0.3-0.1-0.7-0.1-1.1v-0.6
			l0,0v-0.1v-0.6v-0.2c0-0.1,0-0.1,0-0.2s0-0.2-0.1-0.2l0,0l0,0l0,0v-0.3c-0.2-2.5-0.5-3.3-0.8-3.6c-0.1-0.4-0.3-0.7-0.5-0.9
			c-0.2-0.7-0.7-1.4-1.6-1.9H85c-1.6-0.3-1.8-0.5-1.8-0.5l-0.1-0.1h-1l-0.4,0.1c-0.8,0.1-1.7,0.6-2.6,1.6c-0.3,0.4-0.7,1.2-1.3,2.1
			v0.1c-0.1,0.5-0.2,0.7-0.3,0.8h-0.2v0.4c-0.4,2-0.7,3.3-0.7,3.9l0.1,0.3l-0.2,1.7v0.1V78v0.1l0,0c0,0.7,0.1,1.2,0.1,1.5l-0.2,0.7
			h0.1l0.1,0.1c0,0,0,0,0,0.1v0.3l0,0l0.3,3.7h-0.1v0.4c0.3,2.4,0.6,4.2,1,5.3c0.3,0.9,0.9,1.8,1.8,2.6c0.1,0.4,0.8,0.6,2.4,0.9
			c0.7,0,1.5-0.3,2.4-0.9l0.1-0.1v-0.1c0,0,0.1-0.1,0.3-0.2c0.7-0.5,1.2-1.1,1.6-1.9v-0.1c0-0.1,0-0.1,0-0.2h0.1l0.1-0.2
			c0.5-0.9,0.7-1.7,0.7-2.2l0,0c0.2-1.2,0.4-2.1,0.5-2.6v-0.1V85c0.1-0.2,0.1-0.5,0.1-0.8v-0.3l0,0v-0.1c0.1-0.2,0.1-0.4,0.1-0.7
			v-0.3c0.1-0.1,0.1-0.3,0.1-0.5v-0.1L88,82.1c0,0,0,0,0-0.1v-2.2l0.1-0.6v-0.1L88.3,78.4L88.3,78.4z M86,78.2
			c0,0.5-0.1,0.9-0.1,1.2v3.5c0,0.1,0,0.4-0.3,1.5v0.1l0.1,0.1c-0.1,0.3-0.3,1-0.6,3.1v0.1c-0.9,2.3-1.3,2.4-1.3,2.4h-0.3l-0.1,0.1
			c-0.4,0.6-0.9,0.8-1.4,0.8c-0.2,0-0.5-0.1-1.2-0.9c-0.3-0.6-0.6-1.2-0.8-1.9h0.2l-0.3-0.5c0-0.1-0.2-0.5-0.5-2.8h0.1l-0.2-1.8
			l0.1-0.1V83c0,0,0-0.1,0-0.2l0,0l-0.1-0.6l0.1-0.2l-0.1-0.2c0-0.1,0-0.1,0-0.2v-0.9l0.2-0.7h-0.2c0,0,0-0.1,0-0.2v-1.1
			c0-0.1,0-0.2-0.1-0.3c0-0.8,0.1-1.4,0.1-1.9v-1l0.2-0.7h-0.1c0.3-1.6,0.4-2.2,0.5-2.5h0.3l-0.1-0.4c0.2-0.5,0.3-0.7,0.3-0.8l0,0
			l0.7-1.3c0.4-0.7,0.9-1.2,1.5-1.4c1.4,0.1,1.8,0.3,1.9,0.4v0.1c0.9,1.6,1.4,3.1,1.4,4.4c0,0.1-0.1,0.2-0.1,0.3v0.1l0,0v0.1v0.3
			h-0.1l0.1,0.4c0.2,0.6,0.2,0.9,0.2,1L85.9,76l0,0c0,0.2,0,0.4,0.1,0.6v0.3c0,0.1,0,0.2,0.1,0.3c0,0.1,0,0.2-0.1,0.3v0.1
			C85.9,78,85.9,78.1,86,78.2z"/>
		<path class="st0" d="M101.5,91.9c0-0.2,0-0.4,0.1-0.6v-0.1l-0.1-1.2c0-0.1,0.1-0.2,0.1-0.3v-0.3c0-0.1,0-0.1-0.1-0.2l0,0v-0.1
			v-0.4V88c0-0.1,0-0.3-0.1-0.5v-0.2V87c0-0.3,0-1-0.1-2v-0.1l0,0v-0.1v-1.3l0,0c0.1-0.2,0.1-0.5,0.1-0.8c0-0.4,0-1.2-0.1-2.6
			l0.2-0.6h0l-0.1-0.2c0,0,0,0,0-0.1l0.2-0.7h-0.1v-0.3c0-0.1,0-0.1,0-0.1l0.1-0.1l-0.1-0.8c0-0.1,0-0.1,0-0.2v-0.5l0.1-1l0,0l0,0
			c0-0.5-0.1-0.7-0.1-0.9h0.1v-0.2c0-0.1,0-0.2,0-0.3l0.1-0.2l-0.1-0.2c0,0,0,0,0-0.1v-1.4l0.1-0.7h-0.2v-0.2c0-0.2,0-0.6-0.1-1
			c0-0.1,0.1-0.2,0.1-0.3c0-0.2-0.1-0.4-0.1-0.5l0.2-0.7h-0.2l0,0c0-0.1,0.1-0.2,0.1-0.3v-0.2l0.1-0.1V68c0-0.1,0-0.2-0.1-0.4v-0.1
			c0-0.3-0.1-0.6-0.4-0.9l-0.2-0.1l-0.1,0.1c0,0-0.1,0-0.2-0.1h-0.1c-0.2,0-0.3,0-0.5,0.1h-0.1c-0.4,0-0.8,0.4-1.2,1.4l-0.1,0.2
			l0.2,0.3l0,0l-0.1,0.2l0.1,0.2l0,0L98.7,69l0.1,0.3c0,0.1-0.1,0.2-0.1,0.2v0.1l0.1,0.1c0,0,0.1,0.2,0.2,0.9c0,0.1-0.1,0.1-0.1,0.2
			v0.1L99,71c0,0,0,0,0,0.1v0.6l-0.1,0.8H99l0,0l0.1,0.3L99,73l0.1,0.1l0,0v0.1l0.1,0.5v0.2c-1.9-2.3-4.3-4.9-7.1-7.5L92,66.3h-0.2
			c-0.3,0-0.5,0.1-0.7,0.1H91h-0.2l-0.1,0.1c-0.5,0.4-0.8,0.8-0.8,1.3c0,0.6,0.1,0.9,0.1,1.1l0,0v0.3c0,0.5,0.1,0.7,0.1,0.9
			c0,0.1-0.1,0.2-0.1,0.3v0.1l0.1,0.4l0,0v0.4c0,0.2,0.1,0.4,0.1,0.6v0.2c0,0.5,0,1,0.1,1.6c0,0.1-0.1,0.1-0.1,0.2V74l0.1,0.1
			c0,0,0,0,0,0.1v0.9l0,0v0.4c0,0.3,0.1,0.5,0.1,0.7h-0.1v0.3c0,0.5,0.1,0.9,0.1,1.1v0.6l0,0v0.1c0,0.1,0,0.2,0,0.3v0.1v0.1
			c0,0.1,0,0.3,0.1,0.5v0.1v0.1c0,0.1,0,0.1,0,0.2l-0.1,0.1l0.1,0.4c-0.1,0.2-0.1,0.4-0.1,0.6v0.1h-0.1v0.2l0,0l0.1,0.5v0.5h-0.1
			l0.1,0.8v1.1v0.3c0,0.1-0.1,0.1-0.1,0.2l0.1,0.3c0,0,0,0.1-0.1,0.2L90.2,85l0,0l0,0l0.2,1.3c0,0.1-0.1,0.2-0.1,0.3l0.2,0
			c0,0.2-0.1,0.4-0.1,0.7v0.5c0,0,0,0.1,0.1,0.7l-0.1,0.6h0.1v0.1v0.1c0,0.1,0,0.1,0,0.2v0.1c0,0.2,0.1,0.5,0.2,1l0,0v0.4
			c0,0.3,0.1,0.6,0.1,0.7c0,0,0,0.1,0,0.2v0.2c0,0.3,0.1,0.9,0.9,1.1l0,0H92c0.1,0,0.2,0,0.3-0.1h0.1h0.1c0.5-0.2,0.7-0.8,0.7-1.6
			c0-0.4-0.1-1-0.2-1.8c0-0.1,0.1-0.1,0.1-0.2v-0.1v-0.1c0,0,0-0.1-0.1-0.4l0.1-0.2v-0.1c0,0,0-0.2-0.1-1c0-0.3,0-0.5,0-0.7v-0.7
			l0,0V86c0-0.5,0-0.9,0-1.1V84c0-0.2,0-0.4-0.1-0.5c0-0.3,0.1-0.5,0.1-0.7V82v-0.2c0-0.1,0-0.1,0-0.2v-0.1l-0.1-0.1c0,0,0,0,0-0.1
			v-0.8c0-0.1,0-0.2,0-0.3l0.1-0.1l-0.1-0.2c0-0.1,0-0.1,0-0.1v-0.7l0,0v-0.4c0-0.4-0.1-0.8-0.1-1v-0.6l0.2-0.7h-0.1v-0.3
			c0-0.5-0.1-0.7-0.1-0.9c0-0.1,0-0.1,0-0.2v-0.1l0,0l-0.3-4.3c0-0.1,0-0.1,0-0.2l0.8,0.8c0.2,0.1,0.7,0.6,2.5,2.7l3.1,3.7l0.2-0.1
			v0.3c-0.1,0-0.1,0-0.1,0s0.1,0.2,0.2,0.9c0,0.1-0.1,0.2-0.1,0.3l0.1,0.4c0,0.3,0,0.5-0.1,0.7L99,80.4l0.2,0.1v0.2h-0.1v0.2
			c0.1,0.8,0.1,1.3,0.1,1.6c0,0.1-0.1,0.2-0.1,0.3v0.6c0,0.2,0,0.4,0.1,0.7l-0.1,0.3v0.1c0,0.1,0,0.2,0.1,0.3L99,86.3h0.1
			c0,0.2,0.1,0.8,0.1,2c0,0.1-0.1,0.2-0.1,0.3v0.2c0,0.1,0,0.1,0,0.2v0.1l0.1,0.1l0,0l-0.1,0.2l0.1,0.2l-0.1,0.7h0.1l0.1,0.3v1.7
			c0,0.1,0,0.2-0.1,0.3h-0.1v0.1v0.1v0.1V93c0,0.1,0.1,0.3,0.2,0.4c0.1,0.4,0.7,0.5,1.1,0.5h0.1h0.1c0.7-0.3,1.1-0.7,1.2-1.1h0.2
			L101.5,91.9z M98.8,77.3c0-0.1,0.1-0.1,0.1-0.2l0.1,0.2l0,0H98.8z"/>
	</g>
	<g>
		<path class="st1" d="M84.8,21.6c0.1,0.2,0.3,0.4,0.4,0.5c0.1,0,0.1,0.1,0.2,0.1c-0.1-0.2-0.1-0.3-0.2-0.5
			C85,21.6,84.8,21.5,84.8,21.6z"/>
		<path class="st1" d="M27.4,45.7L27.4,45.7L27.4,45.7L27.4,45.7C27.5,45.8,27.5,45.7,27.4,45.7z"/>
		<path class="st1" d="M84.5,20.7c0.1,0.3,0.3,0.5,0.4,0.6C84.8,21,84.7,20.8,84.5,20.7z"/>
		<path class="st1" d="M83.7,36.7c-0.3,0.4-0.5,0.6-0.7,0.9C83.3,37.5,83.6,37,83.7,36.7z"/>
		<path class="st1" d="M27.4,45.3C27.4,45.4,27.4,45.4,27.4,45.3L27.4,45.3z"/>
		<path class="st1" d="M85.4,22.5L85.4,22.5l-0.1-0.2C85.3,22.3,85.4,22.4,85.4,22.5z"/>
		<path class="st0" d="M78.2,40.6l-0.3,0.2C78.1,40.7,78.2,40.7,78.2,40.6z"/>
		<path class="st0" d="M80.6,39.5L80.6,39.5C80.6,39.5,80.5,39.6,80.6,39.5z"/>
		<path class="st0" d="M86.3,23c-0.1-0.2-0.1-0.4-0.3-0.6L86.3,23z"/>
		<path class="st0" d="M67.6,48.7c0.8,0.1,0.5,0,0.5-0.1c0,0-0.1,0-0.3,0C67.8,48.7,67.6,48.7,67.6,48.7z"/>
		<path class="st0" d="M33.2,56.4C33.2,56.4,33.2,56.3,33.2,56.4C33.1,56.3,33.1,56.4,33.2,56.4z"/>
		<path class="st0" d="M52.5,9.1C52.6,9.1,52.6,9.1,52.5,9.1L52.5,9.1z"/>
		<path class="st0" d="M58.8,60.7L58.8,60.7C58.5,61,58.6,60.9,58.8,60.7z"/>
		<path class="st0" d="M73.6,9.3L73.6,9.3C73.6,9.3,73.6,9.4,73.6,9.3L73.6,9.3z"/>
		<path class="st0" d="M74,9.8c0,0,0.2-0.1,0.5-0.1C74.7,9.6,75,9.6,75,9.6c-0.6,0-0.9-0.1-1.3-0.2c0,0,0.1,0.1,0.2,0.2
			C73.9,9.7,74,9.8,74,9.8z"/>
		<path class="st0" d="M84.5,35.6L84.5,35.6L84.5,35.6L84.5,35.6z"/>
		<path class="st0" d="M84.5,35.6L84.5,35.6L84.5,35.6L84.5,35.6z"/>
		<path class="st0" d="M84.4,36c0,0.1-0.1,0.3-0.2,0.4l-0.1,0.2c0,0.1-0.1,0.1-0.1,0.2c-0.3,0.3-0.5,0.4-0.3,0.1
			c-0.1,0.1-0.1,0.2-0.2,0.3c-0.1,0.1-0.1,0.2-0.2,0.3c0.1-0.1,0.2-0.2,0.3-0.3c0,0.1-0.2,0.2-0.3,0.4c-0.2,0.2-0.4,0.4-0.4,0.4
			c0.3-0.1,0.7-0.4,1-0.8c0.2-0.2,0.3-0.4,0.4-0.7C84.3,36.3,84.4,36.1,84.4,36c0.1-0.1,0.1-0.2,0.1-0.3v-0.1
			C84.5,35.7,84.5,35.9,84.4,36z M88.7,30.5c0-0.2-0.1-0.4-0.1-0.4c0-0.2,0.1-0.1,0.1-0.1c-0.1-0.6-0.2-0.1-0.3-1
			c-0.1-0.1-0.1-0.6-0.1-1.2c0-0.3-0.1-0.6-0.1-0.9c-0.1-0.3-0.2-0.6-0.3-0.8c0-0.3,0.2,0.1,0.2,0c-0.7-1.4-0.6-1.2-1.3-2.2
			c0,0-0.1-0.3-0.2-0.5c0-0.1-0.1-0.3-0.1-0.4c0.1,0.5-0.5-0.2-1-0.8v0.1c0-0.1-0.1-0.2-0.2-0.2l0.1,0.1c0,0,0-0.1,0-0.2
			c-0.1,0-0.1-0.1-0.2-0.1c-0.1-0.2-0.2-0.3-0.4-0.5c0,0,0.2,0,0.4,0.2c0.1,0.2,0.1,0.3,0.2,0.5c0.3,0.2,0.6,0.4,0.6,0.3
			c-0.1-0.1-0.2-0.2-0.3-0.4c0.1,0.1,0.1,0.1,0.1,0s-0.1-0.1-0.3-0.3v-0.4h-0.1c0,0-0.2-0.4-0.5-0.8c-0.2-0.4-0.5-0.8-0.5-0.8
			c-1-0.8-2-1.5-3.5-2.8c0.5,0.2,0.3-0.1,0.4-0.2c0.3,0.5,1.2,1,1.8,1.9c-0.3-0.4-0.2-0.4-0.1-0.3c-0.1-0.1-0.4-0.3-0.7-0.6
			c-0.4-0.3-0.7-0.6-0.7-0.6c0.1,0,0-0.1-0.1-0.3c-0.1-0.1-0.1-0.1-0.2-0.2l-0.1-0.1l-0.1-0.1c0,0.1-0.1,0.1-0.2,0.1
			c0,0-0.1,0-0.1-0.1s0-0.1-0.1-0.2c-0.1-0.2-0.2-0.5-0.3-0.8c-0.1-0.3-0.2-0.5-0.3-0.7c0.1-0.1,0.3,0,0.6,1
			c-0.1-0.5-0.3-0.8-0.5-1.1s-0.5-0.5-0.6-1l0,0c-0.1-0.2-0.3-0.4-0.4-0.5c-0.2-0.3-0.3-0.5-0.2-0.4l0.2,0.2c-0.5-0.7-1.3-1.5-2.2-2
			c-0.9-0.6-1.7-0.8-1.9-0.7c0,0,0.3-0.2,0.4-0.2c0,0-0.7-0.1-1.5,0c-0.2,0-0.4,0-0.5,0.1c-0.3-0.1-0.5-0.1-0.8-0.1
			c-0.1-0.3-0.2-0.6,0.7-0.5c-0.4-0.1-0.8-0.2-1.6-0.1c0.3,0,0.6,0.4,0.3,0.4c-0.5-0.2-0.6-0.2-0.8-0.2c-0.1,0-0.2,0-0.3,0h-0.1
			c0,0,0-0.1-0.1-0.1c0,0,0,0,0,0.1l-0.1,0.1c-0.2,0-0.4,0-0.7-0.2c0.1,0,0.1-0.3,0.3-0.3L69,8.8c0.2,0,0.1-0.3-0.1-0.5
			c0,0.1-1.1-0.6-1.5-0.7l0.5,0.3c-1.4-0.8-1.7-0.2-3.1-0.9c0.2,0,0.6-0.2-0.1-0.6c-0.2,0-0.7,0-1.3,0h-0.1h-0.1
			C63,6.3,62.5,6.2,62,6.2c-0.1,0-0.3,0-0.5,0c0.1,0,0.2-0.1,0.3-0.1C62.2,6,62.5,6,62.9,5.9c0.2,0,0.4,0,0.5,0c0.2,0,0.3,0,0.5,0.1
			c-0.3-0.2-0.3-0.2-0.4-0.3c-0.1,0-0.2-0.1-0.7-0.2c-0.2-0.1,0-0.1,0.2-0.1s0.4,0.1,0.6,0.1c-0.1,0-0.2-0.1-0.3-0.1
			c-0.2-0.1-0.5-0.1-0.8-0.2c-0.6-0.1-1.2-0.1-1.2-0.1c0.1,0.1-0.4,0.2-0.9,0.4S59.5,6,59.6,6c0,0,0,0,0.1-0.1
			c0.1,0,0.1-0.1,0.3-0.1c0.2-0.1,0.5-0.2,0.9-0.3c0.6-0.2,1.3-0.1,1.3-0.1c0,0.1-0.4,0.2-0.9,0.4C60.7,6,60,6.2,59.4,6.7
			c-0.4,0.2,0-0.4,0-0.5c-0.1,0.1-0.4,0.4-0.6,0.7s-0.4,0.7-0.5,0.8c0,0,0-0.2,0.1-0.4C58.5,7.2,58.5,7,58.5,7
			c-0.3,0.4-0.4,0.8-0.4,1.3c0,0.2,0,0.5,0,0.6V9l0,0L58,8.9c-0.2-0.2-0.3-0.3-0.2-0.2c0.2,0.2,0.5,0.6,0.7,1c0,0.1,0.1,0.2,0.2,0.2
			c-0.3-0.2-0.7-0.4-1.1-0.5V9.3l-0.2-0.1v0.1c-0.2,0-0.3,0-0.5,0l0,0l0,0c-0.1,0-0.3,0-0.6,0c0-0.1,0.1-0.2,0.3-0.3
			c0.2-0.1,0.5-0.2,0.2-0.3c0,0.1-0.4,0.2-0.5,0.2c-0.4,0,0.1-0.2-0.7,0c-0.1,0.2-1.6,0.8-0.3,0.3c-0.3,0.2-0.5,0.3-0.6,0.4
			c-0.1,0.1-0.2,0.1-0.4,0.2c-0.1,0-0.1,0-0.2,0l0,0c0,0,0,0,0,0.1l0,0L54,10l0,0c-0.1,0-0.3-0.1-0.5-0.2c-0.2-0.2-0.5-0.4-0.8-0.6
			l0,0c-0.7-0.4-1.3-0.5-1.9-0.4c-0.6,0-1.2,0.1-1.8,0.5c-0.2,0-0.8,0.5-0.6,0.2c-0.1,0.1-0.1,0.2-0.2,0.3S48.1,10,48,10.2
			c-0.2,0.2-0.1,0,0-0.2s0.2-0.3,0-0.3c0,0.1,0,0.3-0.2,0.5c-0.1,0.1-0.3,0.1-0.4,0S47.1,10.1,47,10c0,0.1,0.1,0.1,0.2,0.2
			c0,0,0.1,0.1,0.2,0.1c0,0,0.1,0,0.1,0.1h0.1h0.1l0.1-0.1c0-0.1,0.1-0.2,0.1-0.3C48,9.8,48,9.7,48.2,9.6c0.1,0.1,0,0.2,0,0.4
			c-0.1,0.2-0.3,0.3-0.3,0.6c0,0,0,0.1-0.1,0.1h-0.1c0,0,0,0-0.1,0h-0.1c-0.5-0.4-1.1-0.7-1.9-0.8c-0.5,0-1,0-1.5,0.3L44,10.3
			c-0.1,0-0.2,0.1-0.3,0.2c-0.2,0.1-0.3,0.2-0.5,0.3c-0.3,0.2-0.5,0.5-0.8,0.8c-0.2,0.3-0.4,0.7-0.5,1c-0.3,0.1-0.6,0.1-0.9,0.1
			c-0.3-0.1-0.7-0.2-1-0.2c-0.2,0-0.5,0.1-0.6,0.1c-0.3,0-0.7,0.1-1,0.3l0,0c-0.2,0.1-0.8,0.6-1.2,1.5c0,0.1,0,0.1,0,0.1
			c-0.1,0.3-0.2,0.6-0.2,0.9v0.3l0,0c0,0.1-0.1,0.1-0.1,0.1l-0.2,0.1c-0.1,0.1-0.3,0.1-0.4,0.1h-0.1l0,0H36c-0.1,0-0.3,0-0.5,0
			c0,0,0,0,0-0.1c0,0-0.5,0.1-0.7,0.2c-0.1,0-0.1,0-0.1,0s0.2-0.2,0-0.1c0,0-0.1,0.1-0.3,0.2c-0.3,0.1-0.7,0.3-1,0.5
			c-0.1,0-0.1,0.1-0.2,0.1l0,0l0,0c-0.6,0.5-1,1.4-1,2.7c-0.2,0.1-0.6,0.2-1,0.4c-0.4,0.1-1.3,0.4-2,1.3c-0.6,0.7-0.9,2-0.1,3.3l0,0
			c-0.1,0.1-0.1,0.1-0.2,0.1c-0.7,0.4-1.8,1.4-1.8,3c0,0.3,0,1.2,0.6,2l-0.6,0.5c-0.8,0.7-1.5,2.4-0.3,4.2l0,0
			c0.1,0.1,0.1,0.2,0.2,0.3c-0.4,0.4-1.2,1.5-1.3,2.7c0,0.9,0.3,1.7,0.9,2.3l0.1,0.1l0.1,0.1c0,0,0.1,0.1,0.2,0.2
			c-0.3,0.4-0.6,1-0.8,1.7c-0.2,0.3-0.3,0.6-0.4,0.5c0.1,0.5,0.1,1.1,0.5,1.8c0.2,0.3,0.4,0.7,0.8,0.9c0.1,0.1,0.2,0.1,0.3,0.2
			l0.1,0.1c0,0,0,0,0.1,0c0,0,0.1,0,0.1,0.1c-0.1,0.3-0.2,0.7-0.3,1.3v-0.1c-0.1,1.3,0.4,2.3,1.1,3c0.3,0.4,0.8,0.7,1.3,0.9
			c0.1,0,0.2,0.1,0.3,0.1c0.1,0,0.2,0.1,0.2,0.1c0,0.1,0,0.1,0.1,0.2s0.1,0.3,0.2,0.4v-0.3c0.2,0.5,0.3,0.7,0.3,0.9
			c0.3,0.2,0.1-0.1-0.1-0.5s-0.3-0.7-0.1-0.5c0,0.4,0.5,1.3,1,2.1c0.5,0.8,1.1,1.6,1.1,1.9c0.6,0.7,0-0.3,0.5,0.4l0.1,0.2l0.2,0.1
			c0.3,0.5,0.5,0.7,0.4,0.8c-0.1-0.1-0.3-0.3-0.4-0.4c0.2,0.3,0.6,0.7,0.9,1c0.2,0.2,0.4,0.4,0.6,0.5L34.7,57
			c0.9,0.8,1.9,1.7,3.1,2.4c1.1,0.8,2.3,1.3,3.4,1.7L41.1,61c0.4,0.2,0.7,0.3,0.9,0.3c0.2,0.1,0.4,0.2,0.6,0.2
			c0.2,0.1,0.3,0.2,0.6,0.3c0.3,0.1,0.6,0.2,1.1,0.3h-0.1c0.4,0,0.9,0.1,1.4,0.2c-0.5,0,0.9,0.3,0.2,0.3c1.9,0.2,1,0.1,2.2,0
			l0.3,0.2c0.2,0,0.3-0.1,0.5-0.1s0.4,0,0.9,0c-0.8,0.1,0.6,0.2-0.3,0.3c1,0.2,1.8,0.1,2.4,0.1c0.6-0.1,1.1-0.1,1.6,0
			c0.5-0.2,0-0.2-0.5-0.2s-1,0-0.8,0c-0.2-0.1,0-0.1,0.3-0.2c0.2,0,0.3,0,0.5-0.1c0.2,0,0.4-0.1,0.5-0.1c0.3,0,0.6,0,1,0
			s0.9,0,1.6-0.3c-0.1,0-0.1,0.1-0.2,0.1c0.3-0.1,0.6-0.2,0.9-0.4c0.3-0.2,0.6-0.3,1-0.5c0.3-0.4,0.9-0.5,0.8-0.8
			c0,0-0.1,0.1-0.2,0.1c-0.1,0.1-0.3,0.2-0.4,0.3c-0.3,0.2-0.5,0.3-0.6,0.4c0.7-0.5,1.3-1.1,2.4-1.9c0,0.1-0.3,0.4-0.5,0.6
			c0.4-0.2,0.6-0.5,1-0.8c0,0.1-0.3,0.5-0.7,0.8c-0.4,0.3-1,0.7-1.3,1c0.5-0.1,1.4-1.2,1.1-0.7c0.2-0.3,0.5-0.6,0.9-0.9
			c0.2-0.1,0.4-0.3,0.5-0.5c0.2-0.2,0.4-0.4,0.5-0.7l0.1,0.1c0.1-0.1,0.3-0.5,0.5-0.7c0,0-0.1,0.2-0.1,0.3c-0.1,0.2-0.1,0.3-0.1,0.3
			c0.5-0.8,1.2-1.4,1.5-2.3c-0.4,0.8-0.5,0.9-0.6,0.8c0-0.1,0-0.2-0.3,0.1c0.5-1,0.7-1.3,0.9-1.6c0.2-0.3,0.5-0.6,0.8-1.6
			c-0.1,0.4-0.4,0.9-0.3,0.5c0.2-0.5,0.4-1,0.5-1.4c0.3-1.7-0.2,0.2-0.2-0.5c0.1-0.3,0.2-0.5,0.1-0.8c0-0.2-0.1-0.5-0.2-0.8H64
			c0-1-0.1-1.1-0.2-1.2s-0.2-0.2-0.2-1c0,0,0.1,0.2,0.2,0.3c0.1,0.1,0.1,0.3,0.1,0.3c0-0.1,0-0.2-0.1-0.4c0-0.2-0.1-0.4-0.1-0.4
			l0.2,0.2c-0.1-0.5-0.2-0.8-0.3-1.1c0-0.2-0.1-0.3-0.1-0.5c0-0.1,0-0.1,0-0.2c-0.1,0.1-0.3-0.1-0.5-0.6c0-0.2,0.3,0.3,0-0.3
			c0.2,0.3,0.4,0.5,0.3,0.5c0.1,0.1,0.2,0.2,0.2,0.2c0.1-0.1,0-0.3-0.1-0.4l0,0c0,0-0.1-0.1-0.1,0l0,0L63.2,46l0,0l0,0
			c0,0,0,0,0.1,0s0.1,0,0.2,0c0.2,0.1,0.1,0.2,0,0.2c0.1,0,0.2,0,0.4,0.1c-0.1,0.1-0.1,0.2-0.2,0.3c0,0,0,0,0.2,0l0.5,0.1
			c0.1,0.1,0.7,0.4,0.5,0.4c0.4,0.2,1,0.3,1.5,0.4c0.3,0.1,0.6,0.1,0.9,0.2s0.7,0.2,1,0.2l0,0c0.1,0,0.2,0,0.5,0
			c0.7,0,1.4-0.1,2-0.6c0.3-0.2,0.6-0.5,0.8-0.9c0.1-0.2,0.2-0.4,0.2-0.6c0-0.1,0-0.2,0.1-0.3v-0.1c0,0,0,0,0.1-0.1h0.1l0,0l0.1-0.1
			l0.2-0.1c0.4-0.6,0.1-0.3-0.1-0.2c-0.1,0.1-0.2,0.1-0.1,0c0-0.1,0.2-0.3,0.4-0.8c0.3-0.7,0.3-0.9,0.3-0.9c0.1,0,0.1,0.1,0.2-0.1
			c0,0,0-0.1-0.1-0.1v-0.1c0,0,0,0,0.1-0.1c0.1-0.2,0.2-0.4,0.3-0.6c0-0.1,0.1-0.2,0.1-0.3c0-0.1,0.1-0.3,0.1-0.3
			c0-0.1,0-0.2,0.1-0.2l0,0h0.1l0,0l0,0c0,0.1,0,0.1,0,0.1v0.1v0.1c0.1-0.1,0.1-0.1,0.1-0.1l0,0v-0.1l0,0l0,0c0,0.1,0.1,0.1,0.1,0.2
			v0.1c0,0.1,0,0.1,0,0.2s-0.1,0.2-0.1,0.3c-0.1,0.2,0,0.3,0.2-0.2c0,0,0-0.1,0-0.2v-0.1l0,0l0,0c0,0,0-0.1-0.1-0.1
			c0.1-0.1,0,0,0.7-0.2c0.5-0.1,0.9-0.3,0.9-0.4c0,0,0.2,0,0.3,0c0.1,0,0.2,0,0.3-0.1c-0.1,0.1-0.2,0.1-0.3,0.1
			c0.3-0.1,0.5-0.1,0.7-0.2l0,0l0,0l0.1-0.1l0.1-0.1c0.2-0.2,0.4-0.4,1.1-0.6c0.4-0.2,0.8-0.2,0.6-0.1c0.1,0,0.3-0.1,0.4-0.2
			c0.2-0.1,0.5-0.3,0.5-0.3c0.2-0.1,0.3-0.1,0.1,0c0.1-0.1,0.4-0.2,0.6-0.3c0.4-0.2,0.8-0.4,0.8-0.4l0,0c0.2-0.2,0.6-0.6,0.8-0.8
			c0.4-0.2-0.2,0.2,0,0.1c0,0,0.2-0.2,0.4-0.3s0.3-0.4,0.3-0.4c0.4-0.2-0.1,0.5-0.8,0.9c0.5-0.1,0.7-0.3,0.9-0.5
			c0-0.1,0.1-0.2,0.2-0.3c0,0,0.1-0.1,0.1-0.2v-0.1c0.1-0.1,0.2-0.2,0.3-0.3c0.1-0.1,0.1-0.1,0.2-0.2c-0.1,0.1-0.1,0.1-0.2,0.1
			c0.1-0.4,0.3-0.5,0.7-0.9l0,0c0-0.1,0.1-0.1,0.1-0.3c0-0.1,0.1-0.2,0.1-0.3c0-0.1,0-0.3,0.1-0.4v-0.1l0,0v-0.1
			c0.1,0,0.1,0,0.1-0.1c0,0,0,0,0.1,0h0.1l0.1,0.2c0,0,0,0,0.1-0.1c0.1,0,0.2-0.1,0.2-0.1c0.1-0.1,0.2-0.2,0.4-0.3
			c0.8-0.3,1-0.3,1.3-0.3c1.2-0.7-1,0.3,0.4-0.6c0.3-0.1,0.5-0.3,0.7-0.5c0.1-0.1,0.2-0.2,0.3-0.3c0.1-0.1,0.2-0.2,0.2-0.4
			c0.3-0.5,0.4-1.1,0.5-1.8c0.2-0.8,0.1,0.2,0.2-0.1C88.8,30.8,88.8,30.7,88.7,30.5z M85,21.3c-0.1-0.2-0.3-0.4-0.4-0.6
			C84.7,20.8,84.8,21,85,21.3z M71.8,12.7c3.3,0,5.9,2.7,5.9,6s-2.7,6-5.9,6c-3.3,0-6-2.7-6-6C65.9,15.3,68.5,12.7,71.8,12.7z
			 M27.5,45.8L27.5,45.8L27.5,45.8L27.5,45.8L27.5,45.8z M27.4,45.3L27.4,45.3C27.4,45.5,27.4,45.4,27.4,45.3z M85.6,31.6
			c-4.3,3.8-14.3-0.4-14.8-0.6c1.9,3.9,8.7,3.5,8.7,3.5c2.2-0.1,1.8,1,1.8,1c-0.1,0.3-0.4,0.5-0.8,0.7c-0.1,1-5.4,2.9-5.4,2.9
			c-1.7,0.8-7,0.6-10.6,0.3c0.3,0,0.4,0.1,0.4,0.1c2.3,0.2,5.6,1.6,5.6,1.6c0.6,0.2,0.3,0.7,0.3,0.7c-0.2,0.4-0.5,0.3-0.5,0.3
			c-1.1-0.3-2.6-0.6-2.6-0.6c-0.5-0.1-0.7,0.4-0.1,0.6l2,0.8c0.6,0.3,0.3,0.9,0.3,0.9c-0.2,0.7-0.9,0.3-0.9,0.3
			c-0.6-0.2-2-0.6-2-0.6c-0.5-0.1-0.6,0.4-0.2,0.5c0.1,0,1.4,0.5,1.4,0.5c1,0.5,0.8,1.1,0.8,1.1c-0.1,0.6-1.2,0.3-1.2,0.3
			c-8.2-2.2-11.2-6.3-11.2-6.3l0,0c-3.2-1.3-5.9-1.8-8.1-1.8c-0.2,0-0.3,0-0.5,0c-0.3,0-0.6,0.1-0.9,0.1s-0.6,0.1-0.9,0.2
			c-0.1,0-0.2,0.1-0.4,0.1c-0.1,0-0.2,0.1-0.3,0.1c-0.2,0-0.4,0.1-0.6,0.2s-0.4,0.1-0.5,0.2c-0.1,0-0.2,0.1-0.3,0.2
			c-0.6,0.3-1,0.5-1.5,0.8c-0.1,0-0.2,0.1-0.2,0.1c-0.7,0.5-1.2,1-1.7,1.6c-0.1,0.1-0.2,0.2-0.3,0.4l-0.1,0.1
			c-0.1,0.2-0.2,0.3-0.3,0.5c-0.1,0.2-0.2,0.3-0.3,0.5V43c-0.1,0.2-0.2,0.4-0.3,0.6c-0.1,0.2-0.2,0.4-0.3,0.6l0,0v0.1
			c-0.1,0.2-0.1,0.3-0.2,0.5c0,0,0,0,0,0.1c-1.1,3.7,0.9,6.5,3,8.2c11.5,8.5,14.2-1,14.2-1c2-8.1-3.8-8.5-3.8-8.5
			c-7.4-0.8-6.3,4.1-6.3,4.1c0.5,4,3.4,2.7,3.4,2.7c2-1,0.8-2.6,0.8-2.6c-1.3-1.4-0.3-2.1-0.3-2.1c0.6-0.7,1.4,0.4,1.4,0.4
			c2.6,3.8-0.2,5.9-0.2,5.9c-6.5,2.8-8-2.9-8-2.9c-1.6-7.1,4.9-8.2,4.9-8.2c6-0.7,9.2,1.5,10.9,4.1c0.4,0.6,0.7,1.3,1,1.9
			c0.3,0.7,0.5,1.5,0.6,2.2c0.2,0.8,0.2,1.5,0.3,2c0.1,0.8,0,1.4,0,1.6l0,0c-0.1,1-0.4,1.8-0.7,2.6c-0.3,0.8-0.7,1.5-1.2,2.2
			c-0.7,1-1.5,1.7-2.4,2.3c-0.8,0.5-1.6,0.9-2.4,1.2c-1.2,0.4-2.1,0.5-2.1,0.5c-0.1,0-0.3,0-0.4,0c-0.9,0-1.8,0-2.7,0
			c-0.7,0-1.5-0.1-2.2-0.2c-1.3-0.2-2.5-0.4-3.7-0.8c-0.7-0.2-1.3-0.4-1.9-0.7c-1-0.4-2-0.9-2.9-1.5c-0.8-0.5-1.5-1-2.1-1.6
			c-0.7-0.6-1.4-1.3-2-2c-0.5-0.6-1-1.3-1.4-2c-0.5-0.8-1-1.6-1.3-2.5c-0.1-0.3-0.3-0.6-0.4-0.9c0.2,0.9,0.4,1.4,0.4,1.4L30,50.1
			c-1.5-1.1-0.5-2.7-0.5-2.7c0.9-1.4-1.2-2.7-1.2-2.7c-1.5-0.8,0.2-2.6,0.2-2.6c0.8-1-0.8-2.2-0.8-2.2c-1.1-1.2,0.5-2.7,0.5-2.7
			c1.1-0.7-0.2-2.4-0.2-2.4c-0.8-1.1,0-1.9,0-1.9l0.9-0.8c1.3-0.7,0.2-1.7,0.2-1.7c-0.6-0.6-0.5-1.3-0.5-1.3c0-1,0.9-1.5,0.9-1.5
			c0.6-0.3,1.2-1,1.2-1c0.5-1-0.3-1.7-0.3-1.7c-0.5-0.8,0-1.3,0-1.3c0.4-0.5,1.1-0.7,1.1-0.7c1.6-0.5,1.9-0.7,1.9-0.7
			c0.5-0.4,0.4-1.2,0.4-1.2c0-1.3,0.6-1.5,0.6-1.5c0.4-0.4,1.5-0.4,1.5-0.4c1,0.1,1.7-0.5,1.7-0.5c1-0.6,1-1.7,1-1.7
			c0.1-0.9,0.7-1.3,0.7-1.3c0.4-0.2,1.2,0,1.2,0c0.3,0.2,1.8-0.1,1.8-0.1c1.3-0.3,1.4-1.3,1.4-1.3c0.3-0.7,1.2-1.2,1.2-1.2
			c1-0.4,1.5,0.2,1.5,0.2c0.7,0.6,1.7,0.4,1.7,0.4c1-0.1,1.4-1.1,1.4-1.1c0.3-0.7,1.4-0.8,1.4-0.8c1.1-0.1,1.7,0.8,1.7,0.8
			c0.3,0.8,1.5,0.7,1.5,0.7c1,0.1,1.4-0.4,1.4-0.4c0.7-0.7,1.5-0.6,1.5-0.6c1,0,1.4,1.1,1.4,1.1s0.6,1.2,1.1,2.3
			c0.5,0.3,0.8,0.5,0.8,0.5c4.2,2.3,1.9-2.5,1.9-2.5c-1.6-2.3-1.8-4.1-1.8-4.1c-0.7-2.4,2.3-1.6,2.3-1.6c3,1.2,5.5,2.5,7.8,3.8
			c-3.3,0.6-5.8,3.5-5.8,7c0,3.9,3.2,7.1,7.1,7.1s7.1-3.2,7.1-7.1c0-0.3,0-0.7-0.1-1c4.5,4.1,6,7.4,6,7.4
			C87.1,30,85.6,31.6,85.6,31.6z"/>
		<path class="st0" d="M79.7,13.8c0.1,0.2,0.2,0.3,0.2,0.3C79.9,14.1,79.8,13.9,79.7,13.8z"/>
		<path class="st0" d="M79.7,13.8L79.7,13.8L79.7,13.8L79.7,13.8z"/>
		<path class="st0" d="M86,22.4C86,22.5,86,22.5,86,22.4C86,22.6,86.1,22.5,86,22.4z"/>
		<path class="st0" d="M68.3,48.6L68.3,48.6C68.2,48.6,68.2,48.6,68.3,48.6L68.3,48.6z"/>
		<path class="st0" d="M56.2,8.6c0.3,0,0.4,0,0.5,0C56.8,8.6,56.6,8.6,56.2,8.6z"/>
		<path class="st0" d="M43.8,9.9l-0.4,0.3c0.2-0.1,0.3-0.1,0.4-0.1V9.9z"/>
		<path class="st0" d="M46.4,9.6c-0.1,0-1.1-0.1-0.2,0.1C46.3,9.6,47.6,10.1,46.4,9.6z"/>
		<path class="st0" d="M65.9,6.7c0.6,0.2,0.9,0.4,0.7,0.1c-0.9-0.5-0.3,0.1-1.1-0.4C65.2,6.3,66.1,6.7,65.9,6.7z"/>
		<path class="st0" d="M65.9,6.7c-0.1,0-0.2-0.1-0.3-0.1C65.7,6.6,65.8,6.7,65.9,6.7z"/>
		<path class="st0" d="M84.4,35.5L84.4,35.5L84.4,35.5C84.5,35.5,84.5,35.6,84.4,35.5L84.4,35.5C84.4,35.5,84.4,35.4,84.4,35.5z"/>
		<polygon class="st0" points="77.5,41.2 77.7,41.1 77.3,41 		"/>
		<ellipse class="st0" cx="73.3" cy="43.8" rx="0" ry="0"/>
		<path class="st0" d="M73.2,43.9L73.2,43.9L73.2,43.9L73.2,43.9L73.2,43.9L73.2,43.9c-0.1,0.3-0.1,0.4-0.2,0.5
			c-0.1,0.2-0.1,0.3,0,0.3c0.1-0.2,0.1-0.5,0.1-0.7C73.2,43.8,73.2,43.9,73.2,43.9z"/>
		<path class="st2" d="M80.6,36.2c-0.1,1-5.4,2.9-5.4,2.9c-1.7,0.8-7,0.6-10.6,0.3c-0.9-0.2-2.9-0.7-3.4-1.9c0,0-1.1-2-0.7-4.2
			c0,0,0-1.8,4.7-0.7c0,0,5.6,0.8,8.4,3.1c0,0,3.1,2,5.2,1.1C78.7,36.8,79.8,36.6,80.6,36.2L80.6,36.2z"/>
		<path class="st3" d="M39,44.6L39,44.6L39,44.6z"/>
		<path class="st3" d="M48.6,37.8c-2.7,0.1-4.7,0.9-6.1,2C43.7,38.9,45.7,37.9,48.6,37.8z"/>
		<path class="st3" d="M39.2,44.1c0.3-0.9,0.9-1.8,1.7-2.8c-1.2,1.4-1.6,2.7-1.6,2.7C39.2,44,39.2,44,39.2,44.1z"/>
		<path class="st2" d="M39,44.6c-1.1,3.7,0.9,6.5,3,8.2c1.6,1.3,3.1,2,3.3,2.1c-13.5-2.6-7.9-16.4-7.9-16.4c1.7-5,10.4-5.6,10.4-5.6
			c3.3-0.4,8.5,5.6,8.5,5.6c0.1,0.1,0.5,0.9,0.5,1c-3.2-1.3-5.9-1.8-8.1-1.8c-2.5,0.1-4.5,0.8-5.9,1.8c-0.1,0-0.2,0.1-0.2,0.1
			c-0.7,0.5-1.2,1-1.7,1.6c-1.1,1.3-1.5,2.5-1.6,2.7l0,0V44C39.1,44.3,39.1,44.4,39,44.6L39,44.6z"/>
		<path class="st0" d="M71.8,13.6c-2.8,0-5,2.3-5,5.1c0,2.8,2.3,5,5,5c2.8,0,5-2.3,5-5C76.8,15.9,74.6,13.6,71.8,13.6z M72.1,22.2
			c-1.9,0-3.5-1.5-3.5-3.5c0-1.9,1.5-3.4,3.5-3.4c1.9,0,3.4,1.5,3.4,3.4C75.6,20.6,74,22.2,72.1,22.2z"/>
		<path class="st0" d="M72.5,16.7c-1.2,0-2.1,1-2.1,2.1c0,1.2,1,2.1,2.1,2.1c1.2,0,2.1-1,2.1-2.1C74.7,17.6,73.7,16.7,72.5,16.7z
			 M72.8,20c-0.6,0-1.1-0.5-1.1-1.1s0.5-1.1,1.1-1.1s1.1,0.5,1.1,1.1S73.4,20,72.8,20z"/>
		<path class="st0" d="M73.7,18.8c0,0.4-0.3,0.8-0.7,0.8c-0.4,0-0.7-0.3-0.7-0.8c0-0.4,0.3-0.8,0.7-0.8
			C73.4,18.1,73.7,18.4,73.7,18.8z"/>
		<path class="st0" d="M58.5,15.2l-1.8,13.3l-7-14.9C53.5,13.3,56.6,14.3,58.5,15.2z"/>
		<path class="st0" d="M48.9,28.9l-9.4-10.8c0.2-0.2,0.3-0.3,0.3-0.3c2.7-2.1,5.2-3.3,7.6-3.8L48.9,28.9z"/>
		<path class="st0" d="M43,30.7l-9.7-6c1.4-2,3-3.7,4.2-4.9c0.2-0.1,0.3-0.2,0.5-0.3L43,30.7z"/>
		<path class="st0" d="M39.5,33.2L30,31.7c0-0.1,0-0.2,0-0.3c0.5-1.9,1.4-3.7,2.4-5.3L39.5,33.2z"/>
		<path class="st0" d="M36.3,37.5l-6.9,1c0-1.3,0-2,0-2c0-0.9,0-1.7,0.1-2.5L36.3,37.5z"/>
		<path class="st0" d="M36,41.4l-5.9,3.5c-0.4-1.5-0.5-2.9-0.7-4.1L36,41.4z"/>
		<path class="st0" d="M36,46.8l-4.2,3.1c-0.1-0.3-0.3-0.6-0.4-0.9c-0.2-0.5-0.4-1-0.5-1.5L36,46.8z"/>
		<path class="st0" d="M36.8,50.8l-2.3,3.5c-0.5-0.6-1-1.3-1.4-2c0-0.1-0.1-0.2-0.1-0.3L36.8,50.8z"/>
		<path class="st0" d="M39.4,54.5l-0.8,3.4c-0.8-0.5-1.5-1-2.1-1.6L39.4,54.5z"/>
		<path class="st0" d="M43.5,56.9l-0.2,3.2c-0.7-0.2-1.3-0.4-1.9-0.7L43.5,56.9z"/>
		<path class="st0" d="M49.1,61c-0.7,0-1.5-0.1-2.2-0.2l1.4-2.4L49.1,61z"/>
		<path class="st0" d="M54.4,60.5c-1.2,0.4-2.1,0.5-2.1,0.5c-0.1,0-0.3,0-0.4,0l0.6-2.7L54.4,60.5z"/>
		<path class="st0" d="M59.1,57.1c-0.7,1-1.5,1.7-2.4,2.3l-0.7-3C56,56.2,58.8,57,59.1,57.1z"/>
		<path class="st0" d="M61,52.3L61,52.3c-0.1,1-0.4,1.9-0.7,2.6L57.8,53L61,52.3z"/>
		<path class="st0" d="M61,50.7l-3.2-0.5l2.9-1.5C60.8,49.5,60.9,50.1,61,50.7z"/>
		<path class="st0" d="M60,46.5h-2.3l1.3-1.9C59.5,45.2,59.8,45.9,60,46.5z"/>
	</g>
</g>
</svg>